<svg width="64" height="64" viewBox="0 0 64 64" fill="none" xmlns="http://www.w3.org/2000/svg">
<path d="M31.9999 63.5076C49.4011 63.5076 63.5076 49.4011 63.5076 31.9999C63.5076 14.5987 49.4011 0.492188 31.9999 0.492188C14.5987 0.492188 0.492188 14.5987 0.492188 31.9999C0.492188 49.4011 14.5987 63.5076 31.9999 63.5076Z" fill="#DDDCE0"/>
<path d="M14.6234 9.70069C14.8967 9.70069 15.1182 9.47915 15.1182 9.20583C15.1182 8.93251 14.8967 8.71094 14.6234 8.71094H10.7783C10.425 9.03317 10.0786 9.36289 9.74023 9.70069H14.6234Z" fill="#C9C8CE"/>
<path d="M19.1017 9.20582C19.1017 9.47913 18.8802 9.70069 18.6069 9.70069H16.5769C16.3047 9.70069 16.082 9.47801 16.082 9.20583C16.082 8.93364 16.3047 8.71094 16.5769 8.71094H18.6069C18.8802 8.71094 19.1017 8.9325 19.1017 9.20582Z" fill="#C9C8CE"/>
<path d="M5.89288 43.8008H2.78711C2.92173 44.1337 3.06223 44.4633 3.20778 44.7905H5.89288C6.1662 44.7905 6.38771 44.569 6.38771 44.2957C6.38771 44.0223 6.1662 43.8008 5.89288 43.8008Z" fill="#C9C8CE"/>
<path d="M8.11699 44.7905H7.65113C7.37781 44.7905 7.15625 44.569 7.15625 44.2957C7.15625 44.0224 7.37781 43.8008 7.65113 43.8008H8.11699C8.39028 43.8008 8.61183 44.0224 8.61183 44.2957C8.61183 44.569 8.39028 44.7905 8.11699 44.7905Z" fill="#C9C8CE"/>
<path d="M51.9688 34.9832C51.9688 34.7099 52.1903 34.4883 52.4636 34.4883H55.3961C55.6684 34.4883 55.891 34.711 55.891 34.9832C55.891 35.2554 55.6684 35.478 55.3961 35.478L52.4636 35.478C52.1903 35.478 51.9688 35.2565 51.9688 34.9832Z" fill="#C9C8CE"/>
<path d="M51.2004 34.9832C51.2004 35.2565 50.9788 35.478 50.7055 35.478H50.3836C50.1102 35.478 49.8887 35.2565 49.8887 34.9832C49.8887 34.7098 50.1102 34.4883 50.3836 34.4883H50.7055C50.9788 34.4883 51.2004 34.7098 51.2004 34.9832Z" fill="#C9C8CE"/>
<path d="M37.4727 5.08277C37.4727 4.80945 37.6942 4.58789 37.9675 4.58789H40.9C41.1723 4.58789 41.3949 4.8106 41.3949 5.08278C41.3949 5.35496 41.1723 5.57765 40.9 5.57765H37.9675C37.6942 5.57765 37.4727 5.35608 37.4727 5.08277Z" fill="#C9C8CE"/>
<path d="M36.7043 5.08277C36.7043 5.35608 36.4827 5.57765 36.2094 5.57765H35.8875C35.6141 5.57765 35.3926 5.35608 35.3926 5.08277C35.3926 4.80945 35.6141 4.58789 35.8875 4.58789H36.2094C36.4827 4.58789 36.7043 4.80945 36.7043 5.08277Z" fill="#C9C8CE"/>
<path d="M58.7996 34.9832C58.7996 35.2565 58.578 35.478 58.3047 35.478H57.3836C57.1102 35.478 56.8887 35.2565 56.8887 34.9832C56.8887 34.7098 57.1102 34.4883 57.3836 34.4883H58.3047C58.578 34.4883 58.7996 34.7098 58.7996 34.9832Z" fill="#C9C8CE"/>
<path d="M39.2721 56.6445L45.5491 56.6445C45.8224 56.6445 46.044 56.8661 46.044 57.1394C46.044 57.4127 45.8225 57.6343 45.5492 57.6343L39.2722 57.6343C39 57.6343 38.7774 57.4116 38.7773 57.1394C38.7773 56.8672 38.9999 56.6445 39.2721 56.6445Z" fill="#C9C8CE"/>
<path d="M47.3301 57.1394C47.3301 56.8661 47.5516 56.6445 47.8249 56.6445H48.3567C48.63 56.6445 48.8516 56.8661 48.8516 57.1394C48.8517 57.4127 48.6301 57.6343 48.3568 57.6343H47.825C47.5517 57.6343 47.3301 57.4127 47.3301 57.1394Z" fill="#C9C8CE"/>
<path d="M9.52215 30.123L15.7991 30.1231C16.0724 30.1231 16.294 30.3446 16.294 30.6179C16.294 30.8912 16.0725 31.1128 15.7992 31.1128H9.52223C9.25 31.1128 9.02737 30.8901 9.02734 30.6179C9.02732 30.3457 9.24992 30.123 9.52215 30.123Z" fill="#C9C8CE"/>
<path d="M17.5801 30.6179C17.5801 30.3446 17.8016 30.123 18.0749 30.123H18.6068C18.88 30.123 19.1016 30.3446 19.1016 30.6179C19.1017 30.8912 18.8801 31.1128 18.6068 31.1128H18.075C17.8017 31.1128 17.5801 30.8912 17.5801 30.6179Z" fill="#C9C8CE"/>
<path d="M54.2598 18.5437C54.2598 18.2704 54.4813 18.0488 54.7546 18.0488H55.5775C55.8508 18.0488 56.0724 18.2704 56.0724 18.5437C56.0724 18.817 55.8508 19.0386 55.5775 19.0386H54.7546C54.4813 19.0386 54.2598 18.817 54.2598 18.5437Z" fill="#C9C8CE"/>
<path d="M57.8778 19.0386H60.7186C60.5684 18.706 60.4153 18.3751 60.2538 18.0488H57.8778C57.6044 18.0488 57.3828 18.2704 57.3828 18.5437C57.3828 18.817 57.6044 19.0386 57.8778 19.0386Z" fill="#C9C8CE"/>
<path d="M54.663 53.8845C49.1344 59.6149 41.4494 63.253 32.9178 63.4942C25.2476 63.2924 18.2519 60.3435 12.8906 55.5879V54.4013C12.8906 42.8715 22.2397 33.5078 33.7744 33.5078C39.5393 33.5078 44.7725 35.8463 48.5436 39.6321C52.2113 43.2999 54.5251 48.3263 54.663 53.8845Z" fill="#C9C8CE"/>
<path d="M33.7749 30.6182C40.0062 30.6182 45.0576 25.5667 45.0576 19.3354C45.0576 13.1042 40.0062 8.05273 33.7749 8.05273C27.5436 8.05273 22.4922 13.1042 22.4922 19.3354C22.4922 25.5667 27.5436 30.6182 33.7749 30.6182Z" fill="#C9C8CE"/>
<path d="M52.8904 54.4013V55.5829C47.3323 60.5157 40.0166 63.509 32.0019 63.509C23.992 63.509 16.6764 60.5208 11.1133 55.5879V54.4013C11.1133 42.8715 20.4622 33.5078 31.9969 33.5078C37.7618 33.5078 42.9951 35.8463 46.7662 39.6321C50.5472 43.4131 52.8904 48.6364 52.8904 54.4013Z" fill="#4A749B"/>
<path d="M31.9995 30.6182C38.2308 30.6182 43.2822 25.5667 43.2822 19.3354C43.2822 13.1042 38.2308 8.05273 31.9995 8.05273C25.7682 8.05273 20.7168 13.1042 20.7168 19.3354C20.7168 25.5667 25.7682 30.6182 31.9995 30.6182Z" fill="#4A749B"/>
<path d="M52.8651 53.4013C52.8616 53.328 52.8563 53.2553 52.8522 53.1822C52.8438 53.0371 52.8382 52.8916 52.8265 52.7472C52.8242 52.7493 52.8217 52.7511 52.8194 52.7532C52.4191 47.6453 50.183 43.0489 46.7662 39.6321C42.9951 35.8463 37.7618 33.5078 31.9969 33.5078C31.5539 33.5078 31.1157 33.5226 30.6825 33.5522C35.9255 33.8721 40.6567 36.1368 44.1373 39.6321C44.1751 39.6699 44.2128 39.7079 44.2503 39.746C50.295 45.8836 47.7549 56.3184 39.5902 59.0654C36.9393 59.9573 34.2236 60.6192 32.0019 60.6192C24.0216 60.6192 16.7305 57.6555 11.1772 52.7522C11.133 53.2936 11.1133 53.8451 11.1133 54.4013V55.5879C16.6764 60.5208 23.992 63.509 32.0019 63.509C40.0166 63.509 47.3323 60.5157 52.8904 55.5829V54.4013C52.8904 54.066 52.8805 53.733 52.8651 53.4013Z" fill="#386384"/>
<path d="M43.2806 19.3344C43.2806 25.5671 38.2297 30.6181 32.0019 30.6181C31.5589 30.6181 31.1157 30.5936 30.6875 30.5394C36.2998 29.8895 40.6518 25.119 40.6518 19.3344C40.6518 13.5547 36.2998 8.78431 30.6875 8.12951C31.1157 8.07542 31.5589 8.05078 32.0019 8.05078C38.2297 8.05078 43.2806 13.1068 43.2806 19.3344Z" fill="#386384"/>
<path d="M26.2679 36.8565C26.0592 36.8565 25.8655 36.723 25.7986 36.5136C25.7164 36.2546 25.8592 35.9775 26.1183 35.895C28.014 35.2907 29.9924 34.9844 31.9977 34.9844C32.2698 34.9844 32.49 35.2048 32.49 35.4767C32.49 35.7486 32.2698 35.969 31.9977 35.969C30.0938 35.969 28.2164 36.2597 26.4174 36.8332C26.3679 36.8489 26.3174 36.8565 26.2679 36.8565Z" fill="#6894AF"/>
<path d="M17.3532 42.9288C17.2436 42.9288 17.1335 42.8923 17.0422 42.8176C16.8316 42.6455 16.8004 42.3354 16.9725 42.1248C18.5047 40.2508 20.3455 38.696 22.4441 37.5039C22.6821 37.3694 22.9816 37.4523 23.1153 37.6887C23.2499 37.9252 23.1672 38.2256 22.9306 38.3599C20.9379 39.4919 19.1898 40.9683 17.735 42.7481C17.6374 42.8671 17.496 42.9288 17.3532 42.9288Z" fill="#6894AF"/>
<path d="M13.3816 51.5326C13.3528 51.5326 13.3234 51.53 13.2941 51.5247C13.0263 51.4766 12.8484 51.2206 12.8965 50.9529C13.36 48.3795 14.3249 45.9624 15.7648 43.7689C15.9148 43.5416 16.2201 43.4786 16.4465 43.6276C16.6739 43.7767 16.7369 44.082 16.5879 44.3093C15.221 46.3913 14.3052 48.6853 13.8657 51.1274C13.823 51.3655 13.6153 51.5326 13.3816 51.5326Z" fill="#6894AF"/>
<path d="M35.2073 11.083C35.1506 11.083 35.0934 11.0733 35.0371 11.0526C34.0655 10.6952 33.0439 10.5139 32.0001 10.5139C31.728 10.5139 31.5078 10.2935 31.5078 10.0216C31.5078 9.74973 31.728 9.5293 32.0001 9.5293C33.1602 9.5293 34.2963 9.73086 35.3775 10.1286C35.6323 10.2224 35.7631 10.5054 35.6693 10.7605C35.5963 10.9597 35.4078 11.083 35.2073 11.083Z" fill="#6894AF"/>
<path d="M23.1782 16.8376C23.1258 16.8376 23.0724 16.8292 23.0195 16.8112C22.7623 16.7237 22.6243 16.4442 22.7118 16.1867C23.696 13.2918 26.0152 10.9884 28.9162 10.0253C29.1729 9.93937 29.4527 10.0794 29.5388 10.3373C29.6244 10.5954 29.4844 10.8741 29.2268 10.9597C26.6167 11.8263 24.5296 13.8988 23.6445 16.5036C23.5748 16.7085 23.3835 16.8376 23.1782 16.8376Z" fill="#6894AF"/>
<path d="M24.1107 24.7696C23.9468 24.7696 23.7871 24.688 23.6934 24.5392C22.7136 22.9799 22.1953 21.18 22.1953 19.3341C22.1953 19.0622 22.4155 18.8418 22.6876 18.8418C22.9597 18.8418 23.1799 19.0622 23.1799 19.3341C23.1799 20.9943 23.6458 22.6131 24.527 24.0151C24.6718 24.2454 24.6025 24.5492 24.3722 24.694C24.291 24.745 24.2001 24.7696 24.1107 24.7696Z" fill="#6894AF"/>
</svg>
