<svg width="36" height="36" viewBox="0 0 36 36" fill="none" xmlns="http://www.w3.org/2000/svg">
<path d="M33.6607 19.1991L11.8466 31.2045C10.6506 31.8627 9.14762 31.4268 8.48945 30.2309L1.84189 18.1521C1.18372 16.9562 1.61964 15.4532 2.81554 14.795L24.6297 2.78958C25.8256 2.13141 27.3286 2.56733 27.9868 3.76324L34.6344 15.842C35.2925 17.0379 34.8566 18.5409 33.6607 19.1991Z" fill="#FEBC1F"/>
<path d="M33.1841 18.3334L11.37 30.3389C10.1741 30.9971 8.67106 30.5611 8.01289 29.3652L1.36533 17.2865C0.707157 16.0906 1.14308 14.5875 2.33898 13.9294L24.1531 1.92392C25.349 1.26575 26.8521 1.70167 27.5102 2.89758L34.1578 14.9763C34.816 16.1722 34.3801 17.6753 33.1841 18.3334Z" fill="#FFD475"/>
<path d="M24.1531 1.92388L2.33898 13.9294C1.14308 14.5875 0.707164 16.0906 1.36532 17.2864L8.01289 29.3652C8.01289 29.3652 1.81869 17.5191 26.3585 1.838C25.6746 1.53068 24.8606 1.53449 24.1531 1.92388Z" fill="#FEBC1F"/>
<path d="M3.31877 18.7677L4.15352 20.2845C4.36394 20.6668 4.84446 20.8062 5.22679 20.5957L28.2392 7.93084C28.6215 7.72042 28.7609 7.2399 28.5504 6.85757L27.7157 5.3408C27.5053 4.95847 27.0248 4.8191 26.6424 5.02952L3.63005 17.6944C3.24771 17.9048 3.10835 18.3854 3.31877 18.7677Z" fill="#1D2943"/>
<path d="M3.0883 18.3473L3.92305 19.8641C4.13347 20.2464 4.61399 20.3858 4.99632 20.1754L28.0087 7.51049C28.391 7.30007 28.5304 6.81955 28.32 6.43722L27.4852 4.92045C27.2748 4.53812 26.7943 4.39875 26.412 4.60917L3.39958 17.2741C3.01724 17.4845 2.87788 17.965 3.0883 18.3473Z" fill="#4C5C75"/>
<path d="M29.7169 34.3828L4.81736 34.3828C3.4523 34.3828 2.34571 33.2762 2.34571 31.9112L2.3457 18.124C2.3457 16.7589 3.4523 15.6524 4.81735 15.6524L29.7169 15.6523C31.082 15.6523 32.1886 16.7589 32.1886 18.124L32.1886 31.9112C32.1886 33.2762 31.082 34.3828 29.7169 34.3828Z" fill="#5094FF"/>
<path d="M4.81735 33.3947L29.7169 33.3947C31.082 33.3947 32.1886 32.2881 32.1886 30.9231L32.1886 17.1359C32.1886 15.7709 31.082 14.6643 29.7169 14.6643L4.81736 14.6642C3.4523 14.6642 2.34571 15.7708 2.34571 17.1359L2.3457 30.9231C2.3457 32.2881 3.4523 33.3947 4.81735 33.3947Z" fill="#57B3FE"/>
<path d="M4.81729 14.6642L29.7169 14.6642C31.0819 14.6642 32.1885 15.7708 32.1885 17.1359L32.1885 30.923C32.1885 30.923 31.9035 17.5583 2.84375 15.6523C3.29478 15.0533 4.00969 14.6642 4.81729 14.6642Z" fill="#5094FF"/>
<path d="M30.2505 28.9586V29.3422H30.2454C30.2554 29.861 29.8227 30.2968 29.301 30.2968L26.7932 30.2968C26.2808 30.2968 25.8387 29.869 25.8489 29.3422H25.8438V28.9586H25.905C26.0531 28.586 26.4564 28.3308 26.88 28.3308L29.2142 28.3307C29.6379 28.3307 30.0412 28.586 30.1892 28.9586H30.2505Z" fill="#E3E7F0"/>
<path d="M29.2983 29.9161L26.8742 29.9161C26.3857 29.9161 25.9242 29.5845 25.8556 29.1009C25.7721 28.512 26.2276 28.0068 26.8004 28.0068L29.215 28.0067C29.733 28.0067 30.2153 28.3826 30.2469 28.8995C30.2819 29.4734 29.8281 29.9161 29.2983 29.9161Z" fill="white"/>
<path d="M23.063 28.9586V29.3422H23.0579C23.0679 29.861 22.6352 30.2968 22.1135 30.2968L19.6057 30.2968C19.0933 30.2968 18.6512 29.869 18.6614 29.3422H18.6562V28.9586H18.7175C18.8656 28.586 19.2689 28.3308 19.6925 28.3308L22.0267 28.3307C22.4504 28.3307 22.8537 28.586 23.0017 28.9586H23.063Z" fill="#E3E7F0"/>
<path d="M22.1108 29.9161L19.6867 29.9161C19.1982 29.9161 18.7367 29.5845 18.6681 29.1009C18.5846 28.512 19.0401 28.0068 19.6129 28.0068L22.0275 28.0067C22.5455 28.0067 23.0278 28.3826 23.0594 28.8995C23.0944 29.4734 22.6406 29.9161 22.1108 29.9161Z" fill="white"/>
<path d="M15.8755 28.9586V29.3422H15.8704C15.8804 29.861 15.4477 30.2968 14.926 30.2968H12.4182C11.9058 30.2968 11.4637 29.869 11.4739 29.3422H11.4688V28.9586H11.53C11.6781 28.586 12.0814 28.3307 12.505 28.3307H14.8392C15.2629 28.3307 15.6662 28.586 15.8142 28.9586H15.8755Z" fill="#E3E7F0"/>
<path d="M14.9233 29.9161L12.4992 29.9161C12.0107 29.9161 11.5492 29.5845 11.4806 29.1009C11.3971 28.512 11.8526 28.0068 12.4254 28.0068L14.84 28.0067C15.358 28.0067 15.8403 28.3826 15.8719 28.8995C15.9069 29.4734 15.4531 29.9161 14.9233 29.9161Z" fill="white"/>
<path d="M8.688 28.9586V29.3422H8.68289C8.69288 29.861 8.26017 30.2968 7.73852 30.2968L5.23073 30.2968C4.71834 30.2968 4.27622 29.869 4.28636 29.3422H4.28125V28.9586H4.3425C4.49056 28.586 4.89386 28.3308 5.31747 28.3308L7.65172 28.3307C8.07539 28.3307 8.47869 28.586 8.62675 28.9586H8.688Z" fill="#E3E7F0"/>
<path d="M7.73584 29.9161L5.31166 29.9161C4.82323 29.9161 4.36167 29.5845 4.29311 29.1009C4.20962 28.512 4.66506 28.0068 5.23787 28.0068L7.65253 28.0067C8.17047 28.0067 8.65281 28.3826 8.68435 28.8995C8.71936 29.4734 8.2656 29.9161 7.73584 29.9161Z" fill="white"/>
<path d="M4.2832 19.0195L4.2832 21.3258C4.2832 21.9072 4.75449 22.3785 5.33586 22.3785L9.65443 22.3784C10.2358 22.3784 10.7071 21.9072 10.7071 21.3258L10.7071 19.0195C10.7071 18.4381 10.2358 17.9668 9.65443 17.9668L5.33586 17.9668C4.75449 17.9668 4.2832 18.4381 4.2832 19.0195Z" fill="#FEBC1F"/>
<path d="M4.2832 18.6601L4.2832 20.9664C4.2832 21.5478 4.75449 22.0191 5.33586 22.0191L9.65443 22.0191C10.2358 22.0191 10.7071 21.5478 10.7071 20.9664V18.6601C10.7071 18.0787 10.2358 17.6074 9.65443 17.6074L5.33586 17.6074C4.75449 17.6074 4.2832 18.0787 4.2832 18.6601Z" fill="#FFD475"/>
<path d="M7.38327 19.5644V17.6074H6.88327V19.5644H4.2832V20.0644H5.7057V22.0191H6.2057V20.0644H8.45701V22.0191H8.95699V20.0644H10.7071V19.5644H7.38327Z" fill="#FEBC1F"/>
<path d="M29.7953 21.291L26.9802 21.291C26.7457 21.291 26.524 21.1318 26.4911 20.8995C26.451 20.6167 26.6697 20.3741 26.9448 20.3741L29.7553 20.3741C30.004 20.3741 30.2356 20.5546 30.2508 20.8029C30.2676 21.0784 30.0497 21.291 29.7953 21.291Z" fill="white"/>
<path d="M29.7955 19.3283L24.8533 19.3283C24.6187 19.3283 24.3971 19.169 24.3641 18.9368C24.324 18.654 24.5428 18.4113 24.8178 18.4113L29.7555 18.4113C30.0043 18.4113 30.2359 18.5918 30.251 18.8401C30.2679 19.1157 30.0499 19.3283 29.7955 19.3283Z" fill="white"/>
<path d="M29.043 8.6402C30.2196 10.1501 31.1813 11.791 31.9182 13.558C30.7398 12.0493 29.7816 10.4062 29.043 8.6402Z" fill="white"/>
<path d="M7.11719 13.5569C8.8319 12.2448 10.6785 11.1471 12.6531 10.2733C10.9395 11.5871 9.09071 12.6813 7.11719 13.5569Z" fill="white"/>
<path d="M21.2773 32.1538C23.4214 31.9002 25.5696 31.898 27.7136 32.1538C25.5696 32.4096 23.4214 32.4075 21.2773 32.1538Z" fill="white"/>
</svg>
