<svg width="36" height="36" viewBox="0 0 36 36" fill="none" xmlns="http://www.w3.org/2000/svg">
<path d="M35.2779 16.1259L6.29336 22.86L0.732422 14.8822L29.717 8.14777L35.2779 16.1259Z" fill="#47A047"/>
<path d="M32.0638 15.456L21.1205 18.0007C22.5044 17.2546 22.9189 15.877 22.0133 14.5761C21.6689 14.085 21.1779 13.6578 20.5975 13.3196C19.6346 12.765 18.4357 12.4524 17.2559 12.4651L28.2056 9.92079C28.6903 9.80589 29.2323 9.88249 29.5831 10.0802C29.6979 10.1503 29.7935 10.2331 29.8637 10.3287L32.7717 14.4932C33.0332 14.8759 32.7207 15.3031 32.0638 15.456Z" fill="#96D696"/>
<path d="M28.6735 10.5646C28.7429 10.6047 28.8001 10.6532 28.8399 10.709C28.9952 10.9347 28.81 11.1886 28.4209 11.2779C28.134 11.3462 27.8148 11.3022 27.6082 11.1829C27.5376 11.1422 27.48 11.0927 27.4414 11.0358C27.2821 10.8124 27.4712 10.5562 27.8524 10.4668C28.1444 10.3998 28.4645 10.444 28.6735 10.5646Z" fill="#47A047"/>
<path d="M29.9628 15.4905C29.9106 15.6104 29.765 15.6998 29.5299 15.7562C29.2909 15.8102 29.0798 15.8055 28.8967 15.7374C28.8444 15.7179 28.7951 15.6948 28.7487 15.668C28.6328 15.6011 28.5355 15.5113 28.4565 15.3989C28.342 15.239 28.317 15.0979 28.3648 14.9757C28.4211 14.8534 28.5625 14.7665 28.8017 14.7124C29.0368 14.6559 29.2478 14.6608 29.4309 14.7288C29.487 14.7486 29.5393 14.7727 29.5883 14.8009C29.7026 14.8669 29.7978 14.9562 29.8751 15.0697C29.9855 15.2273 30.0147 15.366 29.9628 15.4905ZM29.4278 15.608C29.5735 15.5752 29.6584 15.5164 29.6742 15.4318C29.6981 15.3471 29.665 15.2485 29.5832 15.1356C29.5219 15.0415 29.4437 14.9671 29.351 14.9136C29.3325 14.9029 29.3133 14.8931 29.2937 14.8841C29.1798 14.8323 29.0499 14.8229 28.9039 14.8558C28.758 14.8888 28.6771 14.9499 28.6533 15.0345C28.6335 15.1215 28.6625 15.2178 28.7402 15.3331C28.8049 15.4249 28.8834 15.4989 28.976 15.5524C28.9947 15.5632 29.0141 15.5731 29.0339 15.5822C29.1477 15.634 29.2817 15.6457 29.4278 15.608Z" fill="#414A61"/>
<path d="M27.7204 14.9921L28.42 16.0006L28.1403 16.0641L27.5471 15.2061L27.1943 15.2884L27.0879 15.138L27.7204 14.9921Z" fill="#414A61"/>
<path d="M11.2798 16.347C11.5537 16.5051 11.7782 16.697 11.9324 16.9175C12.542 17.7896 11.8171 18.7817 10.3092 19.1297C9.18647 19.3912 7.94577 19.2215 7.13719 18.7547C6.86291 18.5963 6.63829 18.4038 6.48492 18.1823C5.87533 17.3102 6.60432 16.3205 8.10816 15.9701C9.23152 15.7085 10.4707 15.8799 11.2798 16.347Z" fill="#47A047"/>
<path d="M24.5463 11.52C24.6171 11.5609 24.6752 11.6107 24.7148 11.6682C24.8702 11.8939 24.685 12.1478 24.2959 12.2371C24.009 12.3054 23.6897 12.2614 23.4831 12.1421C23.4125 12.1014 23.355 12.0519 23.3164 11.995C23.157 11.7716 23.3462 11.5154 23.7312 11.4237C24.0214 11.3571 24.3389 11.4003 24.5463 11.52Z" fill="#47A047"/>
<path d="M26.6086 11.0424C26.6798 11.0835 26.7381 11.1334 26.7777 11.1909C26.9373 11.4142 26.7479 11.6705 26.3588 11.7598C26.0701 11.825 25.7509 11.7805 25.5421 11.66C25.4725 11.6198 25.4151 11.5712 25.3752 11.5154C25.2198 11.2896 25.405 11.0358 25.7942 10.9464C26.081 10.8782 26.4003 10.9221 26.6086 11.0424Z" fill="#47A047"/>
<path d="M31.6778 15.0932C31.6257 15.2131 31.4801 15.3025 31.2449 15.3589C31.006 15.4129 30.7949 15.4082 30.6117 15.3401C30.5594 15.3206 30.5101 15.2975 30.4637 15.2707C30.3475 15.2036 30.2494 15.1134 30.1675 14.9992C30.0571 14.8417 30.0318 14.7007 30.0799 14.5784C30.136 14.4562 30.2776 14.3692 30.5127 14.3127C30.7517 14.2588 30.9628 14.2634 31.1459 14.3315C31.2004 14.3518 31.2519 14.3759 31.3003 14.4039C31.4146 14.4699 31.5114 14.5578 31.5861 14.6701C31.7006 14.83 31.7298 14.9687 31.6778 15.0932ZM31.1428 15.2107C31.2886 15.1779 31.3735 15.1191 31.3893 15.0344C31.4092 14.9521 31.3801 14.8511 31.2982 14.7383C31.2336 14.6422 31.1576 14.5691 31.0658 14.5161C31.0475 14.5055 31.0284 14.4958 31.0087 14.4868C30.8949 14.435 30.7609 14.4232 30.619 14.4585C30.473 14.4915 30.3842 14.5525 30.3683 14.6372C30.3445 14.7218 30.3734 14.8229 30.4512 14.9334C30.5193 15.0272 30.5984 15.1016 30.6887 15.1537C30.7069 15.1642 30.7257 15.1738 30.7448 15.1826C30.8628 15.2367 30.9927 15.2461 31.1428 15.2107Z" fill="#414A61"/>
<path d="M15.4072 17.6898C16.3683 18.2447 17.5737 18.5602 18.7531 18.5496L7.80588 21.0926C7.31805 21.2068 6.77944 21.1318 6.42739 20.9285C6.30854 20.8599 6.21098 20.7766 6.14381 20.6811L3.2388 16.5156C2.97685 16.1348 3.29121 15.7068 3.94355 15.5541L14.8916 13.0109C13.5058 13.7564 13.0829 15.1361 13.9892 16.4379C14.3324 16.9299 14.825 17.3536 15.4072 17.6898ZM10.307 19.1297C11.8149 18.7817 12.5398 17.7896 11.9302 16.9175C11.776 16.697 11.5515 16.5051 11.2776 16.347C10.4685 15.8798 9.22931 15.7085 8.10596 15.9701C6.60212 16.3205 5.87312 17.3102 6.48271 18.1823C6.63608 18.4038 6.86071 18.5963 7.13497 18.7547C7.94356 19.2215 9.18426 19.3912 10.307 19.1297Z" fill="#96D696"/>
<path d="M35.2787 16.1276L35.267 20.2864L6.2832 27.0214L6.29499 22.8626L35.2787 16.1276Z" fill="#47A047"/>
<path d="M35.2715 18.9227L6.28794 25.6045L6.28711 25.9029L35.2707 19.2215L35.2715 18.9227Z" fill="#5FAF5F"/>
<path d="M35.2715 18.3967L6.28794 25.0782L6.28711 25.377L35.2707 18.6956L35.2715 18.3967Z" fill="#5FAF5F"/>
<path d="M35.2774 16.2933L6.2938 22.9748L6.29297 23.2733L35.2766 16.5918L35.2774 16.2933Z" fill="#5FAF5F"/>
<path d="M35.2755 17.3448L6.29185 24.0263L6.29102 24.3251L35.2746 17.6437L35.2755 17.3448Z" fill="#5FAF5F"/>
<path d="M35.2735 17.8708L6.2899 24.5522L6.28906 24.8511L35.2727 18.1696L35.2735 17.8708Z" fill="#5FAF5F"/>
<path d="M35.2676 19.9742L6.28408 26.656L6.2832 26.9545L35.2668 20.273L35.2676 19.9742Z" fill="#5FAF5F"/>
<path d="M35.2774 16.8193L6.2938 23.5004L6.29297 23.7992L35.2766 17.1178L35.2774 16.8193Z" fill="#5FAF5F"/>
<path d="M35.2696 19.4486L6.28599 26.1301L6.28516 26.4285L35.2688 19.7471L35.2696 19.4486Z" fill="#5FAF5F"/>
<path d="M17.0762 20.3573L17.0645 24.5159L21.2226 23.5497L21.2344 19.3911L17.0762 20.3573Z" fill="#ED5D71"/>
<path d="M17.6055 20.2347L17.5938 24.3932L21.7519 23.427L21.7637 19.2684L17.6055 20.2347Z" fill="#E3E7F0"/>
<path d="M6.295 22.8627L6.28321 27.0215L0.71875 19.0429L0.73054 14.8842L6.295 22.8627Z" fill="#5FAF5F"/>
<path d="M32.5569 15.1609L32.5445 19.5475L22.7402 25.2451L22.7527 20.8585L32.5569 15.1609Z" fill="#47A047"/>
<path d="M22.7518 20.8585L22.7394 25.2451L1.94531 13.2397L1.95775 8.85303L22.7518 20.8585Z" fill="#47A047"/>
<path d="M1.95117 11.2092L22.7453 23.2086L22.7459 22.984L1.95179 10.9847L1.95117 11.2092Z" fill="#77CB77"/>
<path d="M1.95312 10.6898L22.7472 22.6892L22.7479 22.465L1.95379 10.4653L1.95312 10.6898Z" fill="#77CB77"/>
<path d="M22.7519 20.8585L1.95781 8.85291L1.95703 9.13191L22.7512 21.1313L22.7519 20.8585Z" fill="#77CB77"/>
<path d="M1.94531 13.2398L22.7394 25.245L22.7399 25.0613L1.94582 13.062L1.94531 13.2398Z" fill="#77CB77"/>
<path d="M1.94727 12.2476L22.7414 24.247L22.742 24.0228L1.94789 12.0234L1.94727 12.2476Z" fill="#77CB77"/>
<path d="M1.94727 12.7667L22.7414 24.7664L22.742 24.5419L1.94793 12.5425L1.94727 12.7667Z" fill="#77CB77"/>
<path d="M1.94922 11.7283L22.7433 23.728L22.744 23.5035L1.94984 11.5041L1.94922 11.7283Z" fill="#77CB77"/>
<path d="M22.7499 21.4261L1.9557 9.42676L1.95508 9.65127L22.7492 21.6503L22.7499 21.4261Z" fill="#77CB77"/>
<path d="M1.95379 9.94617L1.95312 10.1704L22.7472 22.1697L22.7479 21.9455L1.95379 9.94617Z" fill="#77CB77"/>
<path d="M14.7982 16.2671L14.7857 20.6537L11.0898 18.5199L11.1023 14.1333L14.7982 16.2671Z" fill="#D3DBEA"/>
<path d="M10.7117 13.907L10.6992 18.2937L11.0909 18.5199L11.1034 14.1333L10.7117 13.907Z" fill="#E34454"/>
<path d="M14.7995 16.2675L14.7871 20.6542L15.1788 20.8804L15.1913 16.4938L14.7995 16.2675Z" fill="#E34454"/>
<path d="M32.5554 15.1609L22.7511 20.8585L1.95703 8.85306L11.7613 3.15546L32.5554 15.1609Z" fill="#47A047"/>
<path d="M22.2645 17.1563C22.3714 17.2181 22.406 17.2864 22.3646 17.3636C22.3309 17.4407 22.2437 17.5179 22.1033 17.5994C21.963 17.681 21.8263 17.7339 21.6934 17.7536C21.564 17.7757 21.4459 17.7559 21.339 17.6942C21.2359 17.6347 21.2013 17.5664 21.2353 17.4892C21.2729 17.4098 21.356 17.3305 21.4964 17.249C21.633 17.1696 21.7735 17.1189 21.9065 17.0991C22.0433 17.077 22.1615 17.0968 22.2645 17.1563Z" fill="#96D696"/>
<path d="M22.65 17.3746C22.6165 17.4914 22.5067 17.6082 22.3133 17.7206C22.1162 17.8352 21.9148 17.8991 21.717 17.9168C21.5156 17.9366 21.3289 17.8991 21.1571 17.7999C20.9891 17.7029 20.92 17.5927 20.9535 17.476C20.9833 17.3614 21.0969 17.2467 21.294 17.1321C21.4875 17.0197 21.685 16.9536 21.8865 16.9338C22.0882 16.9139 22.2748 16.9558 22.4427 17.0528C22.6145 17.152 22.6837 17.2577 22.65 17.3746ZM21.6933 17.7536C21.8263 17.7339 21.963 17.681 22.1033 17.5994C22.2437 17.5179 22.3309 17.4407 22.3646 17.3636C22.406 17.2864 22.3714 17.2181 22.2645 17.1563C22.1615 17.0968 22.0433 17.077 21.9065 17.0991C21.7735 17.1189 21.633 17.1696 21.4963 17.249C21.356 17.3305 21.2729 17.4098 21.2352 17.4892C21.2013 17.5664 21.2359 17.6347 21.339 17.6942C21.4459 17.7559 21.564 17.7757 21.6933 17.7536Z" fill="#4C5671"/>
<path d="M23.4933 17.8661C23.7277 18.0014 23.5649 18.1738 23.3321 18.3091C23.0969 18.4458 22.8036 18.5401 22.5677 18.4039C22.3353 18.2697 22.4914 18.0945 22.7251 17.9587C22.8617 17.8793 23.0022 17.8286 23.1352 17.8088C23.2721 17.7868 23.3902 17.8066 23.4933 17.8661Z" fill="#96D696"/>
<path d="M23.5434 18.4303C23.1927 18.6342 22.7484 18.7182 22.3872 18.5096C22.0264 18.3013 22.1642 18.051 22.5241 17.8419C22.7175 17.7295 22.9151 17.6633 23.1165 17.6435C23.3182 17.6236 23.5048 17.6655 23.6728 17.7625C24.0323 17.9701 23.9009 18.2226 23.5434 18.4303ZM22.9234 18.4634C23.0564 18.4436 23.1931 18.3907 23.3334 18.3091C23.5663 18.1737 23.7289 18.0014 23.4946 17.8661C23.3915 17.8066 23.2734 17.7868 23.1365 17.8088C23.0036 17.8286 22.8631 17.8793 22.7264 17.9587C22.4927 18.0945 22.3366 18.2697 22.5691 18.4039C22.6759 18.4656 22.7941 18.4855 22.9234 18.4634Z" fill="#4C5671"/>
<path d="M28.4105 15.0272C28.6892 15.1881 28.6905 15.4482 28.4138 15.6091C28.1368 15.77 27.6879 15.77 27.4092 15.6091C27.1306 15.4482 27.129 15.1882 27.4059 15.0272C27.6827 14.8664 28.1318 14.8663 28.4105 15.0272Z" fill="#47A047"/>
<path d="M25.4515 13.3191C25.7264 13.4778 25.7277 13.7379 25.451 13.8987C25.174 14.0597 24.7251 14.0596 24.4503 13.9009C24.1716 13.7401 24.17 13.48 24.447 13.3191C24.7237 13.1582 25.1728 13.1582 25.4515 13.3191Z" fill="#5FAF5F"/>
<path d="M26.9286 14.1721C27.2073 14.333 27.2087 14.5931 26.9319 14.7539C26.655 14.9149 26.206 14.9148 25.9274 14.7539C25.6525 14.5952 25.6509 14.3352 25.9279 14.1743C26.2047 14.0134 26.6538 14.0134 26.9286 14.1721Z" fill="#47A047"/>
<path d="M21.6282 16.6163L20.3879 17.3372L20.1855 17.2204L21.2401 16.6075L20.9882 16.462L21.174 16.3541L21.6282 16.6163Z" fill="#4C5671"/>
<path d="M19.7974 9.48348C18.1753 9.06878 15.9704 9.36458 14.373 10.2929C12.7728 11.2228 12.2708 12.4994 12.9923 13.4371L5.1453 8.90661C4.67957 8.63772 4.67334 8.19909 5.13982 7.928L10.2599 4.9525C10.7264 4.68141 11.4837 4.68359 11.9494 4.95248L19.7974 9.48348ZM8.99521 9.43781C10.0756 10.0616 11.8183 10.0615 12.8918 9.43769C13.9651 8.81397 13.9594 7.8045 12.8791 7.18076C11.7987 6.55701 10.056 6.55702 8.98268 7.18075C7.90918 7.8046 7.91486 8.81407 8.99521 9.43781Z" fill="#96D696"/>
<path d="M12.8795 7.18076C13.9599 7.8045 13.9655 8.81398 12.8922 9.4377C11.8187 10.0615 10.076 10.0616 8.99562 9.43782C7.91526 8.81407 7.90959 7.8046 8.98308 7.18075C10.0564 6.55703 11.7991 6.55701 12.8795 7.18076Z" fill="#47A047"/>
<path d="M20.8089 9.883C21.1064 10.0548 21.3373 10.2527 21.5036 10.4686C22.2269 11.408 21.7235 12.6861 20.1261 13.6144C18.5258 14.5444 16.3235 14.8393 14.7004 14.4233C14.3269 14.3275 13.984 14.1942 13.6862 14.0222C13.3891 13.8507 13.1583 13.6529 12.9923 13.4371C12.2708 12.4995 12.7728 11.2229 14.3731 10.2929C15.9704 9.36461 18.1753 9.06881 19.7974 9.48351C20.1702 9.57885 20.5121 9.71164 20.8089 9.883Z" fill="#47A047"/>
<path d="M29.3505 14.9986C29.8201 15.2697 29.8263 15.7083 29.3598 15.9794L24.2397 18.9549C23.7732 19.226 23.0159 19.2238 22.5464 18.9527L14.7012 14.4233C16.3243 14.8393 18.5266 14.5444 20.1268 13.6144C21.7242 12.6861 22.2276 11.408 21.5043 10.4686L29.3505 14.9986ZM22.9479 18.6265C23.1457 18.6088 23.3471 18.5449 23.5442 18.4303C23.9017 18.2226 24.0331 17.9701 23.6736 17.7625C23.5056 17.6655 23.3191 17.6236 23.1174 17.6435C22.9159 17.6633 22.7183 17.7294 22.5249 17.8418C22.1651 18.051 22.0272 18.3013 22.388 18.5096C22.5598 18.6088 22.7464 18.6463 22.9479 18.6265ZM21.7187 17.9168C21.9164 17.8991 22.1178 17.8352 22.3149 17.7206C22.5084 17.6082 22.6181 17.4914 22.6516 17.3746C22.6853 17.2577 22.6161 17.152 22.4444 17.0528C22.2764 16.9558 22.0898 16.9139 21.8881 16.9338C21.6867 16.9536 21.4891 17.0197 21.2957 17.1321C21.0985 17.2467 20.985 17.3613 20.9552 17.476C20.9217 17.5927 20.9908 17.7029 21.1587 17.7999C21.3305 17.8991 21.5172 17.9366 21.7187 17.9168ZM27.4096 15.6091C27.6883 15.77 28.1372 15.77 28.4141 15.6091C28.6909 15.4482 28.6895 15.1881 28.4108 15.0272C28.1322 14.8663 27.6831 14.8664 27.4063 15.0272C27.1293 15.1882 27.1309 15.4482 27.4096 15.6091ZM24.451 13.9009C24.7259 14.0596 25.1748 14.0597 25.4517 13.8987C25.7285 13.7379 25.7271 13.4777 25.4523 13.3191C25.1736 13.1582 24.7245 13.1582 24.4477 13.3191C24.1708 13.48 24.1723 13.74 24.451 13.9009ZM25.9289 14.1742C25.652 14.3352 25.6535 14.5952 25.9284 14.7539C26.2071 14.9148 26.656 14.9148 26.9329 14.7539C27.2097 14.5931 27.2083 14.3329 26.9296 14.172C26.6548 14.0133 26.2057 14.0134 25.9289 14.1742ZM20.3873 17.3371L21.6277 16.6163L21.1734 16.354L20.9876 16.462L21.2396 16.6075L20.185 17.2203L20.3873 17.3371Z" fill="#96D696"/>
<path d="M24.6036 10.5695L14.7994 16.2671L11.1035 14.1333L20.9048 8.43396L24.6036 10.5695Z" fill="#E3E7F0"/>
<path d="M20.5152 8.20953L10.7109 13.907L11.1027 14.1333L20.904 8.43405L20.5152 8.20953Z" fill="#ED5D71"/>
<path d="M24.9892 10.7925L24.6031 10.5694L14.7988 16.2672L15.1914 16.4937L24.9892 10.7925Z" fill="#ED5D71"/>
<path d="M32.5627 17.5172L22.7584 23.2085L22.7578 22.984L32.562 17.2927L32.5627 17.5172Z" fill="#5FAF5F"/>
<path d="M32.5608 16.9978L22.7565 22.6891L22.7559 22.4649L32.5601 16.7733L32.5608 16.9978Z" fill="#5FAF5F"/>
<path d="M22.752 20.8585L32.5562 15.1609L32.557 15.4399L22.7527 21.1313L22.752 20.8585Z" fill="#5FAF5F"/>
<path d="M32.5684 19.5477L22.7642 25.245L22.7637 25.0613L32.5679 19.3699L32.5684 19.5477Z" fill="#5FAF5F"/>
<path d="M32.5666 18.5556L22.7623 24.247L22.7617 24.0228L32.566 18.3314L32.5666 18.5556Z" fill="#5FAF5F"/>
<path d="M32.5666 19.0747L22.7623 24.7664L22.7617 24.5419L32.5659 18.8505L32.5666 19.0747Z" fill="#5FAF5F"/>
<path d="M32.5646 18.0363L22.7604 23.728L22.7598 23.5034L32.564 17.8121L32.5646 18.0363Z" fill="#5FAF5F"/>
<path d="M22.7539 21.4262L32.5582 15.7348L32.5588 15.9593L22.7546 21.6504L22.7539 21.4262Z" fill="#5FAF5F"/>
<path d="M32.5601 16.2542L32.5608 16.4783L22.7565 22.1697L22.7559 21.9455L32.5601 16.2542Z" fill="#5FAF5F"/>
<path d="M6.28607 26.0623L0.721582 18.0966L0.720703 18.408L6.28519 26.3737L6.28607 26.0623Z" fill="#47A047"/>
<path d="M6.29384 23.3208L0.729395 15.3547L0.728516 15.6666L6.29296 23.6323L6.29384 23.3208Z" fill="#47A047"/>
<path d="M6.28802 25.5138L0.723535 17.5485L0.722656 17.8599L6.28714 25.8256L6.28802 25.5138Z" fill="#47A047"/>
<path d="M6.29557 22.8627L0.731128 14.884L0.730469 15.1181L6.29496 23.0838L6.29557 22.8627Z" fill="#47A047"/>
<path d="M6.28798 24.9657L0.723535 17L0.722656 17.3115L6.2871 25.2772L6.28798 24.9657Z" fill="#47A047"/>
<path d="M6.28998 24.4173L0.725488 16.4516L0.724609 16.7631L6.2891 24.7288L6.28998 24.4173Z" fill="#47A047"/>
<path d="M6.29193 23.8688L0.727441 15.9031L0.726562 16.215L6.29105 24.1803L6.29193 23.8688Z" fill="#47A047"/>
<path d="M6.28407 26.6103L0.719629 18.6453L0.71875 18.9565L6.28319 26.9222L6.28407 26.6103Z" fill="#47A047"/>
<path d="M21.7123 28.6845L21.7101 29.4128C21.7101 28.8974 21.3717 28.3865 20.6949 27.9965C20.0204 27.6066 19.1397 27.4139 18.259 27.4139C17.3783 27.4116 16.4976 27.6066 15.8276 27.9965C15.162 28.3842 14.8281 28.8907 14.8281 29.3971L14.8304 28.6666C14.8304 28.1579 15.1643 27.6537 15.8298 27.266C16.4999 26.876 17.3783 26.681 18.2613 26.681C19.142 26.6833 20.0227 26.876 20.6972 27.266C21.3762 27.6582 21.7146 28.1714 21.7123 28.6845Z" fill="#EFA143"/>
<path d="M20.6982 27.5861C22.046 28.3642 22.0531 29.6265 20.7141 30.4046C19.3736 31.1836 17.1944 31.1836 15.8467 30.4055C14.4974 29.6265 14.4903 28.3643 15.8308 27.5853C17.1699 26.8071 19.349 26.8071 20.6982 27.5861Z" fill="#FFDD94"/>
<path d="M22.3996 28.7079L22.3974 29.2769C22.3957 29.8848 21.9964 30.4918 21.1987 30.9554C19.5913 31.8895 16.9786 31.8886 15.3623 30.9555C14.5478 30.4852 14.1408 29.8681 14.1426 29.2521L14.1448 28.683C14.1431 29.2991 14.55 29.9161 15.3645 30.3864C16.9808 31.3195 19.5935 31.3204 21.2009 30.3863C21.9986 29.9228 22.3979 29.3158 22.3996 28.7079Z" fill="#EFA143"/>
<path d="M21.1816 27.0058C22.7978 27.9389 22.8064 29.4532 21.2006 30.3864C19.5933 31.3204 16.9805 31.3196 15.3643 30.3864C13.7465 29.4524 13.7364 27.939 15.3437 27.0049C16.9494 26.0717 19.5638 26.0717 21.1816 27.0058ZM15.8463 30.0858C17.1941 30.8639 19.3732 30.8639 20.7137 30.0849C22.0527 29.3068 22.0456 28.0445 20.6979 27.2664C19.3486 26.4874 17.1695 26.4874 15.8305 27.2656C14.49 28.0446 14.4971 29.3068 15.8463 30.0858Z" fill="#FEBB61"/>
<path d="M17.8526 29.7852L19.0552 29.0847V29.3558L17.8526 30.0562L17.5751 29.891L17.5552 29.3028C17.5487 29.1838 17.542 29.098 17.5222 29.0318C17.509 28.9725 17.4693 28.9263 17.4099 28.8931C17.3504 28.8602 17.2909 28.8469 17.2117 28.8469C17.1389 28.8469 17.0663 28.8602 17.0068 28.8931C16.9737 28.9131 16.9539 28.9328 16.9341 28.9592V29.2038L16.4518 29.2764C16.4187 29.2038 16.4121 29.1376 16.4121 29.0783V28.8073C16.4121 28.8734 16.4253 28.9392 16.4518 29.0054L16.9011 28.946V28.8005C16.9011 28.7214 16.9407 28.6685 17.0068 28.6224C17.0663 28.5892 17.1389 28.5759 17.2117 28.5759C17.2909 28.5759 17.3504 28.5892 17.4099 28.6224C17.4693 28.6618 17.509 28.7082 17.5288 28.7676C17.542 28.8269 17.5487 28.9131 17.5552 29.0318L17.5751 29.62L17.8526 29.7852Z" fill="#EFA143"/>
<path d="M18.4746 28.1133V27.8426C18.4746 27.7897 18.5143 27.7368 18.5935 27.6906C18.7059 27.6245 18.8446 27.6048 19.0032 27.6377C19.1618 27.6642 19.327 27.7303 19.4988 27.8294C19.6706 27.9284 19.7829 28.021 19.8292 28.1133C19.849 28.1465 19.8556 28.173 19.8556 28.1994V28.4701C19.8556 28.4437 19.849 28.4108 19.8292 28.3843C19.7829 28.292 19.6706 28.1994 19.4988 28.1004C19.327 28.001 19.1618 27.9352 19.0032 27.9087C18.8446 27.8755 18.7059 27.8955 18.5935 27.9616C18.5143 28.001 18.4746 28.0539 18.4746 28.1133Z" fill="#EFA143"/>
<path d="M20.3507 28.1597V28.4308C20.3507 28.5627 20.2516 28.6882 20.0533 28.8005C19.8155 28.9392 19.5578 28.9921 19.2803 28.9725C19.0027 28.946 18.7252 28.8534 18.4609 28.7014C18.19 28.543 18.038 28.3843 17.9917 28.2259C17.9851 28.1994 17.9785 28.173 17.9785 28.1465V27.8755C17.9785 27.9019 17.9851 27.9284 17.9917 27.9549C18.038 28.1133 18.19 28.272 18.4609 28.4308C18.7252 28.5827 19.0027 28.675 19.2803 28.7014C19.5644 28.7279 19.8155 28.6685 20.0533 28.5298C20.2516 28.4175 20.3507 28.292 20.3507 28.1597Z" fill="#EFA143"/>
<path d="M20.3394 28.0872C20.3823 28.248 20.2865 28.3965 20.0518 28.5329C19.8169 28.6694 19.5608 28.7254 19.2831 28.7011C19.0012 28.6743 18.7274 28.5841 18.4617 28.4307C18.1917 28.2748 18.0351 28.1165 17.9922 27.9557C17.945 27.7926 18.0408 27.644 18.2757 27.5075C18.5104 27.3711 18.7666 27.3151 19.0484 27.3419C19.3261 27.3663 19.5999 27.4564 19.8699 27.6123C20.1357 27.7657 20.2922 27.9241 20.3394 28.0872ZM19.3278 28.4063C19.4876 28.4356 19.6264 28.4185 19.7396 28.3527C19.8526 28.287 19.8817 28.2066 19.8308 28.114C19.7797 28.0215 19.6699 27.9289 19.497 27.829C19.324 27.7291 19.1595 27.6634 19.0039 27.6366C18.8439 27.6074 18.7051 27.6245 18.5921 27.6902C18.4789 27.756 18.4498 27.8364 18.5009 27.9289C18.5476 28.0191 18.6616 28.1141 18.8346 28.214C19.0075 28.3138 19.1678 28.3771 19.3278 28.4063Z" fill="#FEBB61"/>
<path d="M19.0584 29.0859L17.8555 29.785L17.5728 29.6218L17.557 29.0347C17.5521 28.9154 17.5433 28.8276 17.526 28.7644C17.509 28.7059 17.4708 28.6596 17.4118 28.6255C17.3527 28.5914 17.2895 28.5744 17.2137 28.5744C17.138 28.5744 17.0667 28.5914 17.008 28.6255C16.9032 28.6865 16.8743 28.7912 16.934 28.9374L16.4508 29.008C16.4041 28.8885 16.3993 28.7838 16.4281 28.6938C16.4612 28.6012 16.5491 28.511 16.6958 28.4258C16.8425 28.3405 17.0187 28.2919 17.229 28.2821C17.4307 28.2724 17.6159 28.3113 17.7805 28.4063C17.8691 28.4575 17.9284 28.5207 17.9624 28.5938C18.0008 28.6644 18.0223 28.7741 18.0272 28.9179L18.042 29.2807L18.7167 28.8886L19.0584 29.0859Z" fill="#FEBB61"/>
<path d="M15.7846 29.8734L15.7824 30.6018C15.7824 30.0863 15.444 29.5754 14.7672 29.1854C14.0927 28.7955 13.212 28.6028 12.3313 28.6028C11.4506 28.6005 10.5699 28.7955 9.89985 29.1854C9.23429 29.5731 8.90039 30.0796 8.90039 30.586L8.90262 29.8555C8.90262 29.3468 9.23653 28.8426 9.90209 28.4549C10.5721 28.0649 11.4506 27.8699 12.3335 27.8699C13.2142 27.8722 14.0949 28.0649 14.7694 28.4549C15.4485 28.8471 15.7868 29.3603 15.7846 29.8734Z" fill="#EFA143"/>
<path d="M14.7705 28.775C16.1182 29.5531 16.1253 30.8154 14.7863 31.5935C13.4458 32.3725 11.2667 32.3725 9.91892 31.5944C8.5697 30.8154 8.56259 29.5532 9.90309 28.7742C11.2421 27.996 13.4212 27.996 14.7705 28.775Z" fill="#FFDD94"/>
<path d="M16.4719 29.8968L16.4697 30.4658C16.468 31.0738 16.0686 31.6807 15.271 32.1443C13.6636 33.0784 11.0509 33.0775 9.43457 32.1444C8.62009 31.6741 8.2131 31.057 8.21485 30.441L8.21707 29.8719C8.21532 30.488 8.62231 31.105 9.43679 31.5753C11.0531 32.5084 13.6658 32.5093 15.2732 31.5752C16.0709 31.1117 16.4702 30.5047 16.4719 29.8968Z" fill="#EFA143"/>
<path d="M15.2538 28.1947C16.8701 29.1278 16.8786 30.6421 15.2729 31.5753C13.6655 32.5094 11.0528 32.5085 9.43653 31.5753C7.81872 30.6413 7.80864 29.1279 9.416 28.1938C11.0217 27.2606 13.636 27.2606 15.2538 28.1947ZM9.91859 31.2747C11.2664 32.0529 13.4455 32.0528 14.786 31.2738C16.125 30.4957 16.1179 29.2334 14.7701 28.4553C13.4209 27.6763 11.2418 27.6763 9.90276 28.4545C8.56226 29.2335 8.56937 30.4957 9.91859 31.2747Z" fill="#FEBB61"/>
<path d="M12.3984 30.8047L12.7685 30.593V30.8576L12.3984 31.0754L11.0108 30.2694L10.6871 30.4611L10.3633 30.2694V30.0052L10.6871 30.1901L11.0108 30.0052L12.3984 30.8047Z" fill="#EFA143"/>
<path d="M13.8463 30.2562C13.615 30.3949 13.3507 30.4479 13.0732 30.4278C12.7957 30.4014 12.5247 30.3091 12.2538 30.1568C11.9829 29.9984 11.8243 29.84 11.7847 29.6813C11.7781 29.6548 11.7715 29.6283 11.7715 29.6019V29.3376C11.7715 29.3573 11.7781 29.3838 11.7847 29.4102C11.8243 29.569 11.9829 29.7274 12.2538 29.8861C12.5247 30.0381 12.7957 30.1307 13.0732 30.1568C13.3507 30.1768 13.615 30.1239 13.8463 29.9916C14.0511 29.8729 14.1436 29.7474 14.1436 29.6151V29.8861C14.1436 30.0181 14.0511 30.1439 13.8463 30.2562Z" fill="#EFA143"/>
<path d="M12.2656 29.569V29.3047C12.2656 29.2451 12.3118 29.1921 12.3846 29.146C12.5035 29.0799 12.6422 29.0602 12.7942 29.0931C12.9528 29.1195 13.1246 29.1857 13.2898 29.2783C13.4682 29.3838 13.5739 29.4764 13.6268 29.569C13.6466 29.6019 13.6532 29.6284 13.6532 29.6548V29.9191C13.6532 29.8926 13.64 29.8665 13.6268 29.84C13.5739 29.7474 13.4616 29.6484 13.2898 29.549C13.1246 29.4499 12.9528 29.3906 12.7942 29.3573C12.6357 29.3309 12.5035 29.3509 12.3846 29.417C12.3053 29.4632 12.2656 29.5161 12.2656 29.569Z" fill="#EFA143"/>
<path d="M14.1369 29.5391C14.1796 29.7 14.088 29.851 13.8492 29.9897C13.6144 30.1262 13.354 30.1798 13.0763 30.1554C12.7986 30.131 12.5248 30.0409 12.2548 29.885C11.9848 29.7291 11.8283 29.5708 11.7854 29.4101C11.7424 29.2493 11.8382 29.1008 12.0731 28.9643C12.3119 28.8255 12.5681 28.7695 12.8459 28.7938C13.1236 28.8181 13.3974 28.9082 13.6674 29.0641C13.9374 29.22 14.0939 29.3783 14.1369 29.5391ZM13.1252 29.8631C13.2851 29.8924 13.4196 29.8728 13.5328 29.807C13.6502 29.7388 13.6832 29.661 13.6282 29.5707C13.5771 29.4783 13.4672 29.3808 13.2943 29.281C13.1255 29.1836 12.957 29.1202 12.7971 29.0909C12.6412 29.0594 12.5069 29.0788 12.3895 29.1469C12.2763 29.2128 12.243 29.2907 12.2941 29.3832C12.3494 29.4733 12.4592 29.5708 12.628 29.6682C12.801 29.768 12.9695 29.8314 13.1252 29.8631Z" fill="#FEBB61"/>
<path d="M12.7718 30.5914L12.403 30.8057L11.0108 30.0019L10.6881 30.1894L10.3633 30.0019L11.0548 29.6L12.7718 30.5914Z" fill="#FEBB61"/>
</svg>
