<svg width="24" height="24" viewBox="0 0 24 24" fill="none" xmlns="http://www.w3.org/2000/svg">
<path d="M5.7 10.2H7.5C9.3 10.2 10.2 9.3 10.2 7.5V5.7C10.2 3.9 9.3 3 7.5 3H5.7C3.9 3 3 3.9 3 5.7V7.5C3 9.3 3.9 10.2 5.7 10.2Z" stroke="white" stroke-width="1.5" stroke-miterlimit="10" stroke-linecap="round" stroke-linejoin="round"/>
<path d="M16.5 10.2H18.3C20.1 10.2 21 9.3 21 7.5V5.7C21 3.9 20.1 3 18.3 3H16.5C14.7 3 13.8 3.9 13.8 5.7V7.5C13.8 9.3 14.7 10.2 16.5 10.2Z" stroke="white" stroke-width="1.5" stroke-miterlimit="10" stroke-linecap="round" stroke-linejoin="round"/>
<path d="M16.5 21H18.3C20.1 21 21 20.1 21 18.3V16.5C21 14.7 20.1 13.8 18.3 13.8H16.5C14.7 13.8 13.8 14.7 13.8 16.5V18.3C13.8 20.1 14.7 21 16.5 21Z" stroke="white" stroke-width="1.5" stroke-miterlimit="10" stroke-linecap="round" stroke-linejoin="round"/>
<path d="M5.7 21H7.5C9.3 21 10.2 20.1 10.2 18.3V16.5C10.2 14.7 9.3 13.8 7.5 13.8H5.7C3.9 13.8 3 14.7 3 16.5V18.3C3 20.1 3.9 21 5.7 21Z" stroke="white" stroke-width="1.5" stroke-miterlimit="10" stroke-linecap="round" stroke-linejoin="round"/>
</svg>
