<svg width="36" height="36" viewBox="0 0 36 36" fill="none" xmlns="http://www.w3.org/2000/svg">
<path d="M29.6477 4.89769L29.9773 5.22731C30.1972 5.44725 30.1972 5.80331 29.9773 6.02269L28.125 7.875L27 6.75L28.8523 4.89769C29.0717 4.67831 29.4283 4.67831 29.6477 4.89769Z" fill="#BE2814"/>
<path d="M19.852 4.89769L19.5224 5.22731C19.3024 5.44725 19.3024 5.80331 19.5224 6.02269L21.3747 7.875L22.4997 6.75L20.6474 4.89769C20.428 4.67831 20.0714 4.67831 19.852 4.89769Z" fill="#BE2814"/>
<path d="M23.625 3.375H25.875V5.625H23.625V3.375Z" fill="#FAB400"/>
<path d="M26.4375 3.375H23.0625C22.752 3.375 22.5 3.123 22.5 2.8125C22.5 2.502 22.752 2.25 23.0625 2.25H26.4375C26.748 2.25 27 2.502 27 2.8125C27 3.123 26.748 3.375 26.4375 3.375Z" fill="#FA6450"/>
<path d="M23.625 2.8125C23.625 2.502 23.877 2.25 24.1875 2.25H23.0625C22.752 2.25 22.5 2.502 22.5 2.8125C22.5 3.123 22.752 3.375 23.0625 3.375H24.1875C23.877 3.375 23.625 3.123 23.625 2.8125Z" fill="#DC4632"/>
<path d="M25.875 12.375V16.875H28.4782C30.2985 15.6662 31.5 13.599 31.5 11.25C31.5 7.52231 28.4777 4.5 24.75 4.5C21.0223 4.5 18 7.52231 18 11.25C18 11.6342 18.0394 12.0082 18.1013 12.375H25.875Z" fill="#FA6450"/>
<path d="M25.875 12.375V15.6026C27.8151 15.1026 29.25 13.3464 29.25 11.25C29.25 8.76487 27.2351 6.75 24.75 6.75C22.2649 6.75 20.25 8.76487 20.25 11.25C20.25 11.6392 20.3046 12.015 20.3974 12.375H25.875Z" fill="#F0F0F0"/>
<path d="M19.2246 12.375C19.1627 12.0088 19.125 11.6342 19.125 11.25C19.125 7.71187 21.8486 4.815 25.3125 4.52813C25.1263 4.51294 24.9401 4.5 24.75 4.5C21.0223 4.5 18 7.52231 18 11.25C18 11.6342 18.0394 12.0082 18.1013 12.375H19.2246Z" fill="#DC4632"/>
<path d="M24.4688 6.75H25.0312V7.875H24.4688V6.75Z" fill="#505050"/>
<path d="M28.125 10.9688H29.25V11.5312H28.125V10.9688Z" fill="#505050"/>
<path d="M20.25 10.9688H21.375V11.5312H20.25V10.9688Z" fill="#505050"/>
<path d="M25.0312 11.5312H23.625V10.9688H24.4688V9H25.0312V11.5312Z" fill="#505050"/>
<path d="M6.75 13.5H24.75V27H6.75V13.5Z" fill="#FAB400"/>
<path d="M32.625 31.5H7.875C7.25344 31.5 6.75 30.9966 6.75 30.375V29.25H33.75V30.375C33.75 30.9966 33.2466 31.5 32.625 31.5Z" fill="#288CB4"/>
<path d="M30.375 20.25H24.75V27H6.75V29.25H33.75V24.75L30.375 20.25Z" fill="#64C8F0"/>
<path d="M6.75 13.5H9V27H6.75V13.5Z" fill="#DC9600"/>
<path d="M6.75 27H9V29.25H6.75V27Z" fill="#46AAD2"/>
<path d="M33.75 24.75H27V20.25H30.375L33.75 24.75Z" fill="#F0F0F0"/>
<path d="M30.9375 28.125H33.75V25.875H30.9375C30.627 25.875 30.375 26.127 30.375 26.4375V27.5625C30.375 27.873 30.627 28.125 30.9375 28.125Z" fill="#FAB400"/>
<path d="M24.75 20.25H30.375C30.9966 20.25 31.5 19.746 31.5 19.125C31.5 18.5034 30.9966 18 30.375 18H24.75V20.25Z" fill="#505050"/>
<path d="M27 20.25H28.125V24.75H27V20.25Z" fill="#D2D2D2"/>
<path d="M11.8125 33.75C10.2594 33.75 9 32.4906 9 30.9375C9 29.3844 10.2594 28.125 11.8125 28.125C13.3656 28.125 14.625 29.3844 14.625 30.9375C14.625 32.4906 13.3656 33.75 11.8125 33.75Z" fill="#505050"/>
<path d="M10.125 30.9375C10.125 29.5768 11.0914 28.4423 12.375 28.1818C12.1933 28.1447 12.0054 28.125 11.8125 28.125C10.2594 28.125 9 29.3844 9 30.9375C9 32.4906 10.2594 33.75 11.8125 33.75C12.0054 33.75 12.1933 33.7303 12.375 33.6932C11.0914 33.4327 10.125 32.2982 10.125 30.9375Z" fill="#3C3C3C"/>
<path d="M11.8125 32.0625C11.1909 32.0625 10.6875 31.5585 10.6875 30.9375C10.6875 30.3159 11.1909 29.8125 11.8125 29.8125C12.4341 29.8125 12.9375 30.3159 12.9375 30.9375C12.9375 31.5585 12.4341 32.0625 11.8125 32.0625Z" fill="#F0F0F0"/>
<path d="M28.6875 33.75C27.1344 33.75 25.875 32.4906 25.875 30.9375C25.875 29.3844 27.1344 28.125 28.6875 28.125C30.2406 28.125 31.5 29.3844 31.5 30.9375C31.5 32.4906 30.2406 33.75 28.6875 33.75Z" fill="#505050"/>
<path d="M27 30.9375C27 29.5768 27.9664 28.4423 29.25 28.1818C29.0683 28.1447 28.8804 28.125 28.6875 28.125C27.1344 28.125 25.875 29.3844 25.875 30.9375C25.875 32.4906 27.1344 33.75 28.6875 33.75C28.8804 33.75 29.0683 33.7303 29.25 33.6932C27.9664 33.4327 27 32.2982 27 30.9375Z" fill="#3C3C3C"/>
<path d="M28.6875 32.0625C28.0659 32.0625 27.5625 31.5585 27.5625 30.9375C27.5625 30.3159 28.0659 29.8125 28.6875 29.8125C29.3091 29.8125 29.8125 30.3159 29.8125 30.9375C29.8125 31.5585 29.3091 32.0625 28.6875 32.0625Z" fill="#F0F0F0"/>
<path d="M3.375 18H5.625V19.125H3.375V18Z" fill="#FAB400"/>
<path d="M2.25 20.25H5.625V21.375H2.25V20.25Z" fill="#FAB400"/>
<path d="M3.375 22.5H5.625V23.625H3.375V22.5Z" fill="#FAB400"/>
<path d="M14.625 13.5V16.875L15.75 15.75L16.875 16.875V13.5H14.625Z" fill="#FA6450"/>
<path d="M19.125 23.625H22.5V24.75H19.125V23.625Z" fill="#F0F0F0"/>
<path d="M19.125 21.375H22.5V22.5H19.125V21.375Z" fill="#F0F0F0"/>
</svg>
