<svg width="36" height="36" viewBox="0 0 36 36" fill="none" xmlns="http://www.w3.org/2000/svg">
<g clip-path="url(#clip0_1189_8202)">
<path d="M29.9683 26.5515V8.18417L0.488281 9.44839V27.8157C0.488211 28.2366 0.696477 28.6574 1.11301 28.898L12.7913 35.6404C13.6219 36.12 14.6451 36.12 15.4757 35.6404L29.3435 27.6338C29.7601 27.3933 29.9683 26.9724 29.9683 26.5515Z" fill="url(#paint0_linear_1189_8202)"/>
<path d="M1.11308 8.36627L14.9809 0.359648C15.8114 -0.119883 16.8347 -0.119883 17.6653 0.359648L29.3435 7.10213C30.1765 7.58306 30.1765 8.78541 29.3435 9.26634L15.4757 17.2729C14.6451 17.7524 13.6219 17.7524 12.7914 17.2729L1.11308 10.5305C0.280016 10.0496 0.280016 8.84721 1.11308 8.36627Z" fill="url(#paint1_linear_1189_8202)"/>
<path d="M5.60938 5.77012L20.5041 14.3696L24.4552 12.0885L9.56037 3.48904L5.60938 5.77012Z" fill="#DEA861"/>
<path d="M7.9712 4.40558L22.8659 13.0051L22.092 13.4519L7.19727 4.85241L7.9712 4.40558Z" fill="#CC8241"/>
<path d="M20.5039 14.3696V17.6325L24.455 15.3514V12.0885L20.5039 14.3696Z" fill="#CC8241"/>
<path d="M33.7911 12.2767L31.5778 10.9988C30.5121 10.2603 29.0481 10.304 27.4441 11.3267C24.5342 13.1819 22.1845 17.7162 22.0909 21.652C22.0501 23.3641 22.4302 24.7116 23.0999 25.6017L23.0989 25.6032L26.6813 30.1838C26.7458 30.2663 26.8193 30.3279 26.8993 30.3708L29.1197 31.6528L33.7911 12.2767Z" fill="url(#paint2_linear_1189_8202)"/>
<path d="M35.5103 16.6763C35.5103 12.4253 32.8539 10.5354 29.6336 12.5885C26.7237 14.4436 24.374 18.978 24.2803 22.9138C24.2396 24.6259 24.6196 25.9734 25.2894 26.8634L25.2884 26.8649L28.8707 31.4455C29.3733 32.0882 30.4142 31.4872 30.9168 30.2642L34.4992 21.547L34.4982 21.5467C35.1354 19.9644 35.5103 18.2709 35.5103 16.6763Z" fill="url(#paint3_linear_1189_8202)"/>
<path d="M33.994 15.643L32.3417 14.6919L32.3417 14.6921C31.6894 14.3465 30.8516 14.3958 29.9375 14.9235C27.8578 16.1242 26.1719 19.3456 26.1719 22.1185C26.1719 23.6431 26.6821 24.7133 27.4866 25.1696L27.4861 25.1709L28.9958 26.0425L33.994 15.643Z" fill="url(#paint4_linear_1189_8202)"/>
<path d="M34.5047 22.1318C35.7563 19.1944 35.4238 16.2393 33.762 15.5312C32.1002 14.8231 29.7384 16.6303 28.4869 19.5677C27.2353 22.505 27.5679 25.4602 29.2296 26.1683C30.8914 26.8763 33.2532 25.0691 34.5047 22.1318Z" fill="#F2EFFA"/>
</g>
<defs>
<linearGradient id="paint0_linear_1189_8202" x1="11.7772" y1="22.0921" x2="15.8269" y2="22.0921" gradientUnits="userSpaceOnUse">
<stop stop-color="#CC8241"/>
<stop offset="1" stop-color="#DEA861"/>
</linearGradient>
<linearGradient id="paint1_linear_1189_8202" x1="7.02109" y1="4.07784" x2="22.1867" y2="12.8337" gradientUnits="userSpaceOnUse">
<stop stop-color="#DEA861"/>
<stop offset="1" stop-color="#EBCBA0"/>
</linearGradient>
<linearGradient id="paint2_linear_1189_8202" x1="27.3694" y1="22.0135" x2="31.2818" y2="15.2369" gradientUnits="userSpaceOnUse">
<stop stop-color="#AB2C37"/>
<stop offset="1" stop-color="#FF7A85"/>
</linearGradient>
<linearGradient id="paint3_linear_1189_8202" x1="24.2774" y1="25.2171" x2="38.0396" y2="25.2171" gradientUnits="userSpaceOnUse">
<stop stop-color="#FF4757"/>
<stop offset="1" stop-color="#FF7A85"/>
</linearGradient>
<linearGradient id="paint4_linear_1189_8202" x1="29.7225" y1="19.2291" x2="31.2702" y2="16.5484" gradientUnits="userSpaceOnUse">
<stop stop-color="#C5BAEB"/>
<stop offset="1" stop-color="#D7D1EB"/>
</linearGradient>
<clipPath id="clip0_1189_8202">
<rect width="36" height="36" fill="white"/>
</clipPath>
</defs>
</svg>
