<svg width="160" height="144" viewBox="0 0 160 144" fill="none" xmlns="http://www.w3.org/2000/svg">
<g clip-path="url(#clip0_382_2860)">
<path d="M72.037 11.1501C72.037 11.1501 65.9876 42.3129 31.2277 43.5228C-3.56485 44.7654 -13.0805 94.9269 22.2353 104.246C57.551 113.566 40.1547 137.665 63.3716 142.57C89.793 148.129 90.12 109.053 108.465 108.432C149.012 107.059 169.973 88.485 155.323 73.4104C129.621 46.9563 116.345 51.2073 117.261 30.0832C118.144 8.95917 80.0812 -14.3231 72.037 11.1501Z" fill="#EAF0E6"/>
<path d="M111.933 33.5819L29.3663 50.6185C26.7503 51.1744 25.0499 53.7249 25.5731 56.3736L36.2005 107.908C36.7564 110.524 39.307 112.225 41.9557 111.702L124.523 94.6651C127.139 94.1092 128.839 91.5586 128.316 88.9099L117.688 37.375C117.132 34.7264 114.549 33.026 111.933 33.5819Z" fill="rgba(0,0,0,0.2)"/>
<path d="M109.512 39.7625L99.9963 41.7245C98.4267 42.0515 97.413 43.5884 97.74 45.158L99.702 54.6736C100.029 56.2432 101.566 57.2569 103.135 56.9299L112.651 54.9679C114.221 54.6409 115.234 53.104 114.907 51.5344L112.945 42.0188C112.618 40.4492 111.082 39.4355 109.512 39.7625Z" fill="white"/>
<path d="M71.449 79.8838L39.3705 86.4891C39.2724 86.5218 39.207 86.6199 39.207 86.718L40.188 91.4268C40.2207 91.5249 40.3188 91.5903 40.4169 91.5903L72.4954 84.985C72.5935 84.9523 72.6589 84.8542 72.6589 84.7561L71.6779 80.0473C71.6779 79.9492 71.5471 79.8838 71.449 79.8838Z" fill="white"/>
<path d="M87.2103 86.8833L41.3979 96.3336C41.2998 96.3663 41.2344 96.4644 41.2344 96.5625L42.2154 101.271C42.2481 101.369 42.3462 101.435 42.4443 101.435L88.2567 91.9845C88.3548 91.9518 88.4202 91.8537 88.4202 91.7556L87.4392 87.0468C87.4065 86.916 87.3084 86.8506 87.2103 86.8833Z" fill="white"/>
<path d="M127.135 107.974C134.787 107.974 141 101.761 141 94.1088C141 86.4571 134.787 80.2441 127.135 80.2441C119.483 80.2441 113.271 86.4571 113.271 94.1088C113.271 101.793 119.483 107.974 127.135 107.974Z" fill="rgba(0,0,0,0.2)" stroke="white" stroke-width="10.4202" stroke-miterlimit="10"/>
<path d="M132.467 92.9653H128.51C128.477 92.9653 128.445 92.9653 128.412 92.9326C128.379 92.9326 128.347 92.8999 128.347 92.8672C128.314 92.8345 128.314 92.8345 128.281 92.8018C128.248 92.7691 128.248 92.7364 128.248 92.7037V88.747C128.248 88.4527 128.118 88.1584 127.921 87.9295C127.693 87.7006 127.398 87.6025 127.104 87.6025C126.81 87.6025 126.515 87.7333 126.286 87.9295C126.058 88.1584 125.959 88.4527 125.959 88.747V92.7037C125.959 92.7364 125.959 92.7691 125.927 92.8018C125.927 92.8345 125.894 92.8672 125.861 92.8672C125.829 92.8999 125.829 92.8999 125.796 92.9326C125.763 92.9326 125.731 92.9653 125.698 92.9653H121.741C121.447 92.9653 121.153 93.0961 120.924 93.2923C120.695 93.5212 120.597 93.8155 120.597 94.1098C120.597 94.4041 120.727 94.6984 120.924 94.9273C121.153 95.1562 121.447 95.2543 121.741 95.2543H125.698C125.763 95.2543 125.829 95.287 125.861 95.3197C125.894 95.3524 125.927 95.4178 125.927 95.4832V99.4399C125.927 99.7342 126.058 100.028 126.254 100.257C126.483 100.486 126.777 100.584 127.071 100.584C127.366 100.584 127.66 100.454 127.889 100.257C128.118 100.028 128.216 99.7342 128.216 99.4399V95.4832C128.216 95.4178 128.248 95.3524 128.281 95.3197C128.314 95.287 128.379 95.2543 128.445 95.2543H132.401C132.696 95.2543 132.99 95.1235 133.219 94.9273C133.448 94.6984 133.546 94.4041 133.546 94.1098C133.546 93.8155 133.415 93.5212 133.219 93.2923C133.055 93.0961 132.761 92.9653 132.467 92.9653Z" fill="white"/>
</g>
<defs>
<clipPath id="clip0_382_2860">
<rect width="160" height="143.094" fill="white"/>
</clipPath>
</defs>
</svg>
