<svg width="28" height="29" viewBox="0 0 28 29" fill="none" xmlns="http://www.w3.org/2000/svg">
<path d="M20.9993 5.16675H6.99935C5.71068 5.16675 4.66602 6.21142 4.66602 7.50008V9.83341C4.66602 11.1221 5.71068 12.1667 6.99935 12.1667H20.9993C22.288 12.1667 23.3327 11.1221 23.3327 9.83341V7.50008C23.3327 6.21142 22.288 5.16675 20.9993 5.16675Z" fill="#BAD643" stroke="#BAD643" stroke-width="2" stroke-linecap="round" stroke-linejoin="round"/>
<path d="M20.9993 16.8333H6.99935C5.71068 16.8333 4.66602 17.8779 4.66602 19.1666V21.4999C4.66602 22.7886 5.71068 23.8333 6.99935 23.8333H20.9993C22.288 23.8333 23.3327 22.7886 23.3327 21.4999V19.1666C23.3327 17.8779 22.288 16.8333 20.9993 16.8333Z" fill="#BAD643" stroke="#BAD643" stroke-width="2" stroke-linecap="round" stroke-linejoin="round"/>
</svg>
