<svg width="24" height="24" viewBox="0 0 24 24" fill="none" xmlns="http://www.w3.org/2000/svg">
<path d="M8.73085 5.02499C11.3985 5.02499 14.0631 5.03436 16.7307 5.01874C17.4617 5.01562 18.1958 5.00937 18.9267 5C18.9892 5 19.0517 5.00937 19.1142 5.01249C19.4109 5.03748 19.489 5.27801 19.5484 5.52791C20.1793 8.16435 19.9794 10.9726 18.858 13.456C18.5613 14.1182 18.1958 14.7398 17.7928 15.3396C17.4773 15.8113 17.1306 16.2611 16.7557 16.689C16.4746 17.0076 16.1778 17.3107 15.8655 17.5949C15.2751 18.1291 14.6472 18.6164 13.9163 18.9506C13.5289 19.1287 13.1228 19.2411 12.698 19.3005C12.2763 19.3598 11.8515 19.3598 11.4298 19.3505C9.0932 19.3005 6.75352 19.338 4.41697 19.3286C3.20808 19.3223 1.99607 19.3286 0.787182 19.3286C0.662232 19.3286 0.537283 19.3192 0.415457 19.2786C0.168682 19.1974 0.0156187 18.9819 0.00312375 18.6913C1.18696e-08 18.6101 0 18.5289 0 18.4446C0 14.2494 0 10.0542 0 5.85903C0 5.74033 0.00312371 5.6185 0.0249899 5.4998C0.0812172 5.21241 0.30925 5.04061 0.599758 5.02187C0.699717 5.01562 0.802801 5.01874 0.90276 5.01874C3.5142 5.02499 6.12253 5.02499 8.73085 5.02499Z" fill="#2F4653"/>
<path d="M19.4674 16.4054C19.6111 16.3648 19.7298 16.2836 19.8423 16.193C20.314 15.815 20.667 15.3371 20.9668 14.8154C22.0477 12.9349 22.6849 10.8264 22.8098 8.6523C22.8223 8.43051 22.8255 8.20873 22.8317 7.99006C22.8317 7.9557 22.8255 7.92134 22.8536 7.88698C22.941 7.91197 23.016 7.9557 23.0879 8.01505C23.925 8.7585 24.0687 10.1673 23.975 11.2075C23.7595 13.6721 22.3975 16.3055 20.2109 17.5799C20.1609 17.6081 20.1109 17.6393 20.0578 17.6643C19.7205 17.8455 19.3706 17.986 19.0083 18.1079C18.9395 18.1297 18.8708 18.1547 18.8052 18.1766C19.102 18.161 19.5143 18.1079 19.9797 17.9548C21.2261 17.5456 22.2195 16.621 22.9098 15.5245C23.0785 15.2559 23.2315 14.9779 23.3815 14.6967C23.3909 14.6811 23.4002 14.6624 23.4221 14.6561C23.4502 14.6561 23.4596 14.678 23.469 14.6999C23.8157 15.4995 23.7251 16.3211 23.2378 17.0427C22.2757 18.4671 20.2453 19.3136 18.5647 19.323C17.0153 19.3292 15.4691 19.3261 13.9197 19.3261C13.8697 19.3261 13.7979 19.3511 13.7822 19.2824C13.7666 19.2105 13.8478 19.2168 13.8916 19.198C16.2406 18.1172 18.018 16.2336 19.1769 13.9345C20.1828 11.9353 20.6888 9.67376 20.492 7.43404C20.4296 6.71558 20.2952 6.00649 20.0922 5.31614C20.0797 5.27554 20.0641 5.23493 20.0547 5.1912C20.0266 5.04126 20.0703 5.00377 20.2234 5.01939C20.6045 5.05687 20.9387 5.19744 21.2386 5.43172C21.804 5.87842 22.0227 6.68434 22.1507 7.36219C22.3944 8.63355 22.1445 10.0392 21.8477 11.2825C21.4604 12.9006 20.8075 14.4812 19.8673 15.8588C19.7673 16.0056 19.6517 16.1399 19.5424 16.2836C19.5205 16.3242 19.4956 16.3648 19.4674 16.4054Z" fill="url(#paint0_linear_347_2135)"/>
<path d="M6.08016 11.0685C6.07703 10.8686 6.01456 10.6686 5.83963 10.5562C5.66782 10.4469 5.43979 10.45 5.30547 10.6155C5.2961 10.628 5.27111 10.653 5.27736 10.6718C5.2836 10.6905 5.32734 10.6874 5.34295 10.6968C5.37419 10.7124 5.38669 10.7436 5.38356 10.7749C5.38356 10.8123 5.38356 11.1778 5.38044 11.6776C4.93999 11.6745 4.49642 11.6714 4.05597 11.6682C4.0466 11.5589 4.04348 11.4371 4.05285 11.3028C4.0591 11.1809 4.07472 11.056 4.09971 10.9342C4.10908 10.8811 4.12157 10.828 4.13719 10.7749C4.15281 10.7186 4.19342 10.6468 4.19029 10.5874C4.19029 10.5781 4.18717 10.5718 4.18405 10.5656C4.17155 10.5499 4.14969 10.5531 4.13094 10.5593C4.01849 10.5874 3.90916 10.6468 3.82169 10.7249C3.7967 10.7499 3.72486 10.8155 3.65926 10.931C3.49058 11.234 3.47496 11.6651 3.47496 11.6651C3.46559 11.9431 3.45622 12.5085 3.75297 13.0958C3.75297 13.0958 3.96226 13.5081 4.25902 13.6081C4.31837 13.6268 4.33399 13.6143 4.34023 13.6081C4.3621 13.5768 4.31212 13.5269 4.29963 13.505C4.27151 13.4644 4.24965 13.4175 4.2309 13.3738C4.1903 13.2801 4.16218 13.1801 4.14344 13.077C4.08096 12.7709 4.04036 12.4585 4.04973 12.1462H5.38669C5.38669 12.5398 5.38669 12.9334 5.38669 13.3269C5.38669 13.405 5.41792 13.48 5.48977 13.5175C5.5335 13.5394 5.58348 13.5487 5.63034 13.555C5.71468 13.5644 5.80214 13.5706 5.88648 13.555C5.93646 13.5456 5.98332 13.5269 6.0208 13.4925C6.08016 13.4363 6.08016 13.3644 6.08016 13.2895C6.08016 12.696 6.0864 12.1056 6.0864 11.5121C6.08328 11.3621 6.08328 11.2153 6.08016 11.0685Z" fill="url(#paint1_linear_347_2135)"/>
<path d="M4.24996 13.7583C3.70956 13.599 3.50027 13.0305 3.38469 12.5338C3.3597 12.4245 3.33471 12.3183 3.32221 12.209C3.27848 11.8747 3.2816 11.5092 3.38781 11.1875C3.30659 11.2062 3.26911 11.2781 3.21913 11.3343C3.0442 11.5436 3.02858 11.7904 3.02233 12.034C3.00359 12.6057 3.20976 13.0118 3.25661 13.0992C3.36282 13.296 3.47528 13.4241 3.50964 13.4616C3.62834 13.5959 3.75016 13.6865 3.84388 13.749C3.77203 13.7302 3.66582 13.6959 3.55649 13.6271C3.45341 13.5647 3.38156 13.4928 3.33158 13.4397C3.26286 13.3522 3.21288 13.271 3.18164 13.2179C3.0973 13.068 2.98797 12.8837 2.93487 12.6369C2.91925 12.5682 2.90988 12.4963 2.88177 12.4932C2.84116 12.4901 2.79742 12.6307 2.78805 12.6619C2.75682 12.7619 2.74744 12.8525 2.75057 12.8993C2.75369 13.0867 2.89426 13.4522 3.2285 13.699C3.2285 13.699 3.52213 13.9145 4.02505 13.9333C4.04692 13.9333 4.16875 13.9301 4.25621 13.8677C4.29682 13.8302 4.32806 13.7833 4.24996 13.7583Z" fill="url(#paint2_linear_347_2135)"/>
<path d="M3.3877 11.1848V11.1881L3.39431 11.1782L3.3877 11.1848Z" fill="url(#paint3_linear_347_2135)"/>
<path d="M12.9853 10.9976C12.9884 10.9289 12.9853 10.8258 12.9603 10.704C12.9572 10.6915 12.954 10.6603 12.9384 10.6228C12.929 10.6041 12.9072 10.551 12.851 10.5166C12.8197 10.4978 12.7885 10.4854 12.7541 10.4854C12.7291 10.4854 12.7041 10.4885 12.6823 10.4885C12.6479 10.4885 12.6135 10.4885 12.5823 10.4885C12.5167 10.4885 12.4511 10.4885 12.3855 10.4885C12.3262 10.4916 12.2731 10.5103 12.2293 10.5541C12.1793 10.6072 12.1387 10.679 12.0731 10.8415C12.0606 10.8664 12.0544 10.8914 12.0482 10.9039C12.0232 10.957 11.6702 11.7224 11.5359 11.9441C11.5265 11.9598 11.5046 11.9972 11.4765 11.9941C11.4484 11.9941 11.4265 11.9598 11.4172 11.9441C11.2828 11.7224 10.9299 10.957 10.9049 10.9039C10.8986 10.8883 10.8892 10.8664 10.8799 10.8415C10.8143 10.6821 10.7737 10.6072 10.7237 10.5541C10.6831 10.5103 10.6269 10.4916 10.5675 10.4885C10.5019 10.4854 10.4363 10.4885 10.3707 10.4885C10.3363 10.4885 10.302 10.4885 10.2707 10.4885C10.2458 10.4885 10.2208 10.4885 10.1989 10.4854C10.1645 10.4854 10.1302 10.4978 10.1021 10.5166C10.0458 10.551 10.024 10.6041 10.0146 10.6228C9.99898 10.6603 9.99586 10.6915 9.99273 10.704C9.96774 10.8258 9.96462 10.9289 9.96774 10.9976C9.94275 11.7848 9.91776 12.572 9.88965 13.3561C9.88965 13.3686 9.89277 13.3873 9.89902 13.406C9.93963 13.5216 10.0864 13.5779 10.1989 13.5779C10.3114 13.5779 10.4488 13.5247 10.4957 13.4217C10.4957 13.4217 10.505 13.3998 10.5113 13.3779C10.5456 13.2186 10.5644 11.9285 10.5706 11.3662C10.8799 11.9972 11.1204 12.4689 11.2297 12.6782C11.2516 12.7219 11.3016 12.8063 11.389 12.8375C11.414 12.8469 11.4421 12.85 11.4734 12.85C11.5015 12.85 11.5296 12.8438 11.5577 12.8375C11.6452 12.8094 11.6952 12.7219 11.717 12.6782C11.8295 12.4689 12.07 11.9972 12.3761 11.3662C12.3824 11.9285 12.4011 13.2186 12.4355 13.3779C12.4417 13.3998 12.448 13.4217 12.4511 13.4217C12.498 13.5247 12.6354 13.581 12.7479 13.5779C12.8603 13.5779 13.0071 13.5185 13.0477 13.406C13.054 13.3873 13.0571 13.3686 13.0571 13.3561C13.0384 12.572 13.0103 11.7848 12.9853 10.9976Z" fill="url(#paint4_linear_347_2135)"/>
<path d="M7.5004 12.8604C7.50648 12.8604 7.51257 12.8634 7.51865 12.8634C7.51257 12.8756 7.49736 12.8695 7.5004 12.8604Z" fill="white"/>
<path d="M9.28172 10.5828C9.21924 10.5015 9.10679 10.4984 9.0037 10.4953C8.90374 10.4922 8.7788 10.4891 8.69758 10.5765C8.65385 10.6265 8.64135 10.6827 8.63823 10.7171C8.6351 11.2981 8.6351 11.8791 8.63198 12.4601C8.63198 12.5164 8.62886 12.6226 8.5695 12.7413C8.51015 12.8662 8.42269 12.9349 8.40082 12.9537C8.40082 12.9537 8.25401 13.0693 8.06346 13.0849C8.04472 13.0849 8.02285 13.088 8.02285 13.088C8.0166 13.088 8.01348 13.088 8.00723 13.088C8.00098 13.088 7.99786 13.088 7.99161 13.088C7.99161 13.088 7.97287 13.088 7.95101 13.0849C7.76046 13.0693 7.61364 12.9537 7.61364 12.9537C7.59178 12.9349 7.50431 12.8662 7.44496 12.7413C7.38873 12.6226 7.38248 12.5164 7.38248 12.4601C7.37936 11.8791 7.37936 11.2981 7.37624 10.7171C7.37311 10.6827 7.36062 10.6234 7.31689 10.5765C7.23879 10.4891 7.11072 10.4922 7.01076 10.4953C6.90455 10.4984 6.79522 10.5015 6.73275 10.5828C6.68277 10.6452 6.68589 10.7233 6.68902 10.7577C6.68902 11.3668 6.68902 11.9728 6.68902 12.582C6.68902 12.7506 6.739 12.9755 6.90143 13.1911C7.08261 13.4316 7.345 13.5378 7.42309 13.5659C7.58553 13.6253 7.74484 13.644 7.79482 13.6472C7.87916 13.6565 7.951 13.6565 8.00411 13.6534C8.05721 13.6565 8.12906 13.6534 8.2134 13.6472C8.26338 13.6409 8.42269 13.6253 8.58512 13.5659C8.66634 13.5347 8.92561 13.4285 9.10679 13.1911C9.26922 12.9787 9.3192 12.7538 9.3192 12.582C9.3192 11.9728 9.3192 11.3668 9.3192 10.7577C9.32857 10.7233 9.3317 10.6452 9.28172 10.5828Z" fill="url(#paint5_linear_347_2135)"/>
<path d="M7.65039 13.6123C7.65648 13.6123 7.65952 13.6153 7.6656 13.6153L7.65648 13.6214L7.65039 13.6123Z" fill="white"/>
<path d="M16.5149 11.4574C16.4274 11.1638 16.2462 10.9076 16.0026 10.7233C15.7246 10.514 15.3809 10.4047 15.0373 10.3984C14.6906 10.4078 14.3501 10.5171 14.0721 10.7233C13.8284 10.9076 13.6473 11.1638 13.5598 11.4574C13.3099 12.2977 13.6879 13.3691 14.5906 13.6065C14.7375 13.644 14.8874 13.6596 15.0373 13.6565C15.1873 13.6596 15.3372 13.644 15.484 13.6065C16.3868 13.3722 16.7648 12.2977 16.5149 11.4574ZM15.8401 12.3976C15.7464 12.7943 15.4809 13.2223 15.0342 13.2285C14.5875 13.2254 14.322 12.7975 14.2283 12.3976C14.1377 12.0134 14.1533 11.5636 14.3689 11.22C14.5188 10.9826 14.7718 10.842 15.0342 10.842C15.2997 10.8451 15.5527 10.9857 15.6996 11.22C15.9151 11.5636 15.9338 12.0134 15.8401 12.3976Z" fill="url(#paint6_linear_347_2135)"/>
<defs>
<linearGradient id="paint0_linear_347_2135" x1="12.6548" y1="14.3567" x2="24.282" y2="10.7874" gradientUnits="userSpaceOnUse">
<stop offset="0.329" stop-color="#9C8837"/>
<stop offset="0.5606" stop-color="#F7E59E"/>
<stop offset="0.6012" stop-color="#EFDD95"/>
<stop offset="0.6639" stop-color="#DDCA81"/>
<stop offset="0.7405" stop-color="#C4B062"/>
<stop offset="0.7875" stop-color="#B39F4D"/>
</linearGradient>
<linearGradient id="paint1_linear_347_2135" x1="5.44028" y1="12.3948" x2="3.29907" y2="10.7744" gradientUnits="userSpaceOnUse">
<stop offset="0.329" stop-color="#9C8837"/>
<stop offset="0.5606" stop-color="#F7E59E"/>
<stop offset="0.6012" stop-color="#EFDD95"/>
<stop offset="0.6639" stop-color="#DDCA81"/>
<stop offset="0.7405" stop-color="#C4B062"/>
<stop offset="0.7875" stop-color="#B39F4D"/>
</linearGradient>
<linearGradient id="paint2_linear_347_2135" x1="4.64078" y1="13.452" x2="2.49957" y2="11.8317" gradientUnits="userSpaceOnUse">
<stop offset="0.329" stop-color="#9C8837"/>
<stop offset="0.5606" stop-color="#F7E59E"/>
<stop offset="0.6012" stop-color="#EFDD95"/>
<stop offset="0.6639" stop-color="#DDCA81"/>
<stop offset="0.7405" stop-color="#C4B062"/>
<stop offset="0.7875" stop-color="#B39F4D"/>
</linearGradient>
<linearGradient id="paint3_linear_347_2135" x1="5.38897" y1="12.6941" x2="3.12198" y2="10.9786" gradientUnits="userSpaceOnUse">
<stop offset="0.329" stop-color="#9C8837"/>
<stop offset="0.5606" stop-color="#F7E59E"/>
<stop offset="0.6012" stop-color="#EFDD95"/>
<stop offset="0.6639" stop-color="#DDCA81"/>
<stop offset="0.7405" stop-color="#C4B062"/>
<stop offset="0.7875" stop-color="#B39F4D"/>
</linearGradient>
<linearGradient id="paint4_linear_347_2135" x1="13.3743" y1="13.0537" x2="10.0468" y2="11.2886" gradientUnits="userSpaceOnUse">
<stop offset="0.329" stop-color="#9C8837"/>
<stop offset="0.5606" stop-color="#F7E59E"/>
<stop offset="0.6012" stop-color="#EFDD95"/>
<stop offset="0.6639" stop-color="#DDCA81"/>
<stop offset="0.7405" stop-color="#C4B062"/>
<stop offset="0.7875" stop-color="#B39F4D"/>
</linearGradient>
<linearGradient id="paint5_linear_347_2135" x1="9.64739" y1="12.8908" x2="6.31983" y2="10.8074" gradientUnits="userSpaceOnUse">
<stop offset="0.329" stop-color="#9C8837"/>
<stop offset="0.5606" stop-color="#F7E59E"/>
<stop offset="0.6012" stop-color="#EFDD95"/>
<stop offset="0.6639" stop-color="#DDCA81"/>
<stop offset="0.7405" stop-color="#C4B062"/>
<stop offset="0.7875" stop-color="#B39F4D"/>
</linearGradient>
<linearGradient id="paint6_linear_347_2135" x1="17.3823" y1="13.4001" x2="13.2446" y2="10.9985" gradientUnits="userSpaceOnUse">
<stop offset="0.329" stop-color="#9C8837"/>
<stop offset="0.5606" stop-color="#F7E59E"/>
<stop offset="0.6012" stop-color="#EFDD95"/>
<stop offset="0.6639" stop-color="#DDCA81"/>
<stop offset="0.7405" stop-color="#C4B062"/>
<stop offset="0.7875" stop-color="#B39F4D"/>
</linearGradient>
</defs>
</svg>
