<svg width="24" height="24" viewBox="0 0 24 24" fill="none" xmlns="http://www.w3.org/2000/svg">
<path d="M12 5.48596L11.3923 4.64561C10.9809 4.07675 10.5192 3.59624 10.0165 3.2075L10.0164 3.20747C9.02834 2.44326 7.9203 2.0625 6.70441 2.0625C5.05785 2.0625 3.55378 2.71895 2.45521 3.91042L12 5.48596ZM12 5.48596L12.6077 4.64564M12 5.48596L12.6077 4.64564M12.6077 4.64564C13.0193 4.07659 13.4808 3.59626 13.9833 3.2075C14.9716 2.44325 16.0797 2.0625 17.2956 2.0625C18.9421 2.0625 20.4461 2.71894 21.5446 3.91046L12.6077 4.64564ZM8.82545 19.3944L8.82549 19.3945L8.82849 19.397C9.65302 20.0998 10.5912 20.8994 11.5659 21.7515L11.5664 21.752C11.6861 21.8569 11.8399 21.9148 12 21.9148C12.1601 21.9148 12.314 21.8568 12.4333 21.7523L12.4337 21.752C13.4011 20.906 14.3331 20.1116 15.1534 19.4123L15.175 19.3939L15.1751 19.3939C17.6096 17.3193 19.6401 15.5858 21.0423 13.8938L21.0424 13.8937C22.5838 12.0338 23.25 10.3395 23.25 8.52502C23.25 6.7234 22.6329 5.09092 21.5447 3.91049L8.82545 19.3944ZM8.82545 19.3944C6.3906 17.3195 4.36004 15.5858 2.95783 13.8939C1.4163 12.0338 0.75 10.3395 0.75 8.52521C0.75 6.72341 1.3671 5.09092 2.45515 3.91049L8.82545 19.3944Z" stroke="#6E716D" stroke-width="1.5"/>
</svg>
