<svg width="98" height="100" viewBox="0 0 98 100" fill="none" xmlns="http://www.w3.org/2000/svg">
<ellipse opacity="0.1" cx="48.9583" cy="50" rx="48.9583" ry="50" fill="#335C49"/>
<path fill-rule="evenodd" clip-rule="evenodd" d="M50.4881 18.75C67.3874 18.75 81.0871 32.7411 81.0871 50C81.0871 67.2589 67.3874 81.25 50.4881 81.25C33.5888 81.25 19.8892 67.2589 19.8892 50C19.8892 32.7411 33.5888 18.75 50.4881 18.75Z" fill="white"/>
<path fill-rule="evenodd" clip-rule="evenodd" d="M69.7085 25.6836C76.6488 31.4124 81.087 40.1771 81.087 50.0005C81.087 67.2594 67.3874 81.2505 50.4881 81.2505C40.8693 81.2505 32.2872 76.7179 26.6777 69.63C31.9309 73.9662 38.6176 76.563 45.8982 76.563C62.7976 76.563 76.4972 62.5719 76.4972 45.313C76.4972 37.8775 73.9544 31.0486 69.7085 25.6836V25.6836Z" fill="#FFC200"/>
<path fill-rule="evenodd" clip-rule="evenodd" d="M82.6172 50C82.6172 31.8782 68.2326 17.1875 50.4883 17.1875C32.744 17.1875 18.3594 31.8782 18.3594 50C18.3594 68.1218 32.744 82.8125 50.4883 82.8125C68.2326 82.8125 82.6172 68.1218 82.6172 50ZM21.4193 50C21.4193 33.604 34.4339 20.3125 50.4883 20.3125C66.5426 20.3125 79.5573 33.604 79.5573 50C79.5573 66.396 66.5426 79.6875 50.4883 79.6875C34.4339 79.6875 21.4193 66.396 21.4193 50Z" fill="#154E84"/>
<path fill-rule="evenodd" clip-rule="evenodd" d="M69.7085 25.6836C76.6488 31.4124 81.087 40.1771 81.087 50.0005C81.087 67.2594 67.3874 81.2505 50.4881 81.2505C40.8693 81.2505 32.2872 76.7179 26.6777 69.63C31.9309 73.9662 38.6176 76.563 45.8982 76.563C62.7976 76.563 76.4972 62.5719 76.4972 45.313C76.4972 37.8775 73.9544 31.0486 69.7085 25.6836V25.6836Z" fill="#587B6B"/>
<path fill-rule="evenodd" clip-rule="evenodd" d="M50.4883 17.1875C68.2326 17.1875 82.6172 31.8782 82.6172 50C82.6172 68.1218 68.2326 82.8125 50.4883 82.8125C32.744 82.8125 18.3594 68.1218 18.3594 50C18.3594 31.8782 32.744 17.1875 50.4883 17.1875ZM50.4883 20.3125C34.4339 20.3125 21.4193 33.604 21.4193 50C21.4193 66.396 34.4339 79.6875 50.4883 79.6875C66.5426 79.6875 79.5573 66.396 79.5573 50C79.5573 33.604 66.5426 20.3125 50.4883 20.3125Z" fill="#335C49"/>
<path fill-rule="evenodd" clip-rule="evenodd" d="M47.43 57.063L39.2903 48.8571C38.689 48.2509 37.7203 48.2573 37.1267 48.8714C36.5331 49.4855 36.5393 50.4748 37.1407 51.0811L46.4708 60.487C47.1103 61.1318 48.1537 61.0774 48.7256 60.3695L63.8747 41.6195C64.4125 40.9539 64.3201 39.9691 63.6684 39.4199C63.0166 38.8706 62.0523 38.965 61.5146 39.6306L47.43 57.063Z" fill="#335C49"/>
</svg>
