<svg width="24" height="24" viewBox="0 0 24 24" fill="none" xmlns="http://www.w3.org/2000/svg">
<path d="M17.99 10.7739V14.7739C17.99 15.0339 17.98 15.2839 17.95 15.5239C17.72 18.2239 16.13 19.5639 13.2 19.5639H12.8C12.55 19.5639 12.31 19.6839 12.16 19.8839L10.96 21.4839C10.43 22.1939 9.57001 22.1939 9.04001 21.4839L7.84 19.8839C7.71 19.7139 7.42001 19.5639 7.20001 19.5639H6.80002C3.61002 19.5639 2.01001 18.7739 2.01001 14.7739V10.7739C2.01001 7.8439 3.36002 6.2539 6.05002 6.0239C6.29002 5.9939 6.54002 5.98389 6.80002 5.98389H13.2C16.39 5.98389 17.99 7.5839 17.99 10.7739Z" stroke="black" stroke-width="1.5" stroke-miterlimit="10" stroke-linecap="round" stroke-linejoin="round"/>
<path d="M21.99 6.7739V10.7739C21.99 13.7139 20.64 15.2939 17.95 15.5239C17.98 15.2839 17.99 15.0339 17.99 14.7739V10.7739C17.99 7.5839 16.39 5.98389 13.2 5.98389H6.80002C6.54002 5.98389 6.29002 5.9939 6.05002 6.0239C6.28002 3.3339 7.87002 1.98389 10.8 1.98389H17.2C20.39 1.98389 21.99 3.5839 21.99 6.7739Z" stroke="black" stroke-width="1.5" stroke-miterlimit="10" stroke-linecap="round" stroke-linejoin="round"/>
<path d="M13.5055 13.2339H13.5145" stroke="black" stroke-width="2" stroke-linecap="round" stroke-linejoin="round"/>
<path d="M10.0055 13.2339H10.0145" stroke="black" stroke-width="2" stroke-linecap="round" stroke-linejoin="round"/>
<path d="M6.50551 13.2339H6.51451" stroke="black" stroke-width="2" stroke-linecap="round" stroke-linejoin="round"/>
</svg>
