<svg width="136" height="136" viewBox="0 0 136 136" fill="none" xmlns="http://www.w3.org/2000/svg">
<circle cx="68" cy="68" r="68" fill="#F2F8EF"/>
<g clip-path="url(#clip0_382_2371)">
<path d="M92.4697 38.637V97.3643C92.4704 99.4805 91.7853 101.54 90.517 103.234C89.2487 104.928 87.4654 106.165 85.4346 106.761C83.5749 107.311 84.9575 107.152 53.3182 107.152C50.7222 107.152 48.2327 106.121 46.3971 104.285C44.5615 102.45 43.5303 99.9602 43.5303 97.3643V38.637C43.5303 36.0411 44.5615 33.5515 46.3971 31.7159C48.2327 29.8803 50.7222 28.8491 53.3182 28.8491H82.6818C85.2777 28.8491 87.7673 29.8803 89.6029 31.7159C91.4384 33.5515 92.4697 36.0411 92.4697 38.637Z" fill="#6CB549"/>
<path d="M88.7997 39.8604V94.9173C88.7997 96.8642 88.0262 98.7314 86.6496 100.108C85.2729 101.485 83.4057 102.258 81.4588 102.258H54.5421C52.5952 102.258 50.728 101.485 49.3513 100.108C47.9746 98.7314 47.2012 96.8642 47.2012 94.9173V39.8604C47.2012 37.9135 47.9746 36.0463 49.3513 34.6696C50.728 33.2929 52.5952 32.5195 54.5421 32.5195H58.5673C58.8218 32.5214 59.0692 32.6026 59.2754 32.7517C59.4815 32.9008 59.636 33.1105 59.7174 33.3515L60.0967 34.5138C60.2588 35.0021 60.5706 35.4269 60.988 35.7278C61.4053 36.0287 61.9068 36.1905 62.4213 36.19H73.5795C74.094 36.1905 74.5956 36.0287 75.0129 35.7278C75.4302 35.4269 75.7421 35.0021 75.9041 34.5138L76.2834 33.3637C76.3634 33.1184 76.5189 32.9047 76.7276 32.7531C76.9364 32.6015 77.1877 32.5197 77.4457 32.5195H81.4588C83.4057 32.5195 85.2729 33.2929 86.6496 34.6696C88.0262 36.0463 88.7997 37.9135 88.7997 39.8604Z" fill="white"/>
<path d="M75.3408 52.0952C75.0164 52.0952 74.7052 51.9663 74.4757 51.7369C74.2463 51.5074 74.1174 51.1962 74.1174 50.8717V48.4247C74.1174 46.8023 73.4729 45.2463 72.3256 44.0991C71.1784 42.9518 69.6224 42.3073 67.9999 42.3073C66.3775 42.3073 64.8215 42.9518 63.6743 44.0991C62.527 45.2463 61.8825 46.8023 61.8825 48.4247V50.8717C61.8825 51.1962 61.7536 51.5074 61.5242 51.7369C61.2947 51.9663 60.9835 52.0952 60.659 52.0952C60.3345 52.0952 60.0233 51.9663 59.7939 51.7369C59.5644 51.5074 59.4355 51.1962 59.4355 50.8717V48.4247C59.4355 46.1533 60.3379 43.9749 61.944 42.3688C63.5501 40.7627 65.7285 39.8604 67.9999 39.8604C70.2714 39.8604 72.4497 40.7627 74.0559 42.3688C75.662 43.9749 76.5643 46.1533 76.5643 48.4247V50.8717C76.5643 51.1962 76.4354 51.5074 76.206 51.7369C75.9765 51.9663 75.6653 52.0952 75.3408 52.0952Z" fill="#FFAC00"/>
<path d="M77.5676 49.6484H58.4323C57.0809 49.6484 55.9854 50.744 55.9854 52.0954V69.2242C55.9854 70.5756 57.0809 71.6712 58.4323 71.6712H77.5676C78.919 71.6712 80.0146 70.5756 80.0146 69.2242V52.0954C80.0146 50.744 78.919 49.6484 77.5676 49.6484Z" fill="#6CB549"/>
<path d="M75.3416 55.7658C76.0174 55.7658 76.5651 55.218 76.5651 54.5423C76.5651 53.8666 76.0174 53.3188 75.3416 53.3188C74.6659 53.3188 74.1182 53.8666 74.1182 54.5423C74.1182 55.218 74.6659 55.7658 75.3416 55.7658Z" fill="#F3F3F3"/>
<path d="M75.3416 60.6599C76.0174 60.6599 76.5651 60.1121 76.5651 59.4364C76.5651 58.7607 76.0174 58.2129 75.3416 58.2129C74.6659 58.2129 74.1182 58.7607 74.1182 59.4364C74.1182 60.1121 74.6659 60.6599 75.3416 60.6599Z" fill="#F3F3F3"/>
<path d="M71.67 59.4366C71.6719 58.7633 71.4885 58.1024 71.1399 57.5263C70.7914 56.9502 70.2911 56.481 69.6937 56.1702C69.0964 55.8594 68.4251 55.7189 67.7533 55.7641C67.0814 55.8093 66.435 56.0384 65.8846 56.4264C65.3343 56.8144 64.9013 57.3463 64.633 57.9639C64.3647 58.5815 64.2715 59.261 64.3636 59.928C64.4556 60.595 64.7293 61.2239 65.1548 61.7458C65.5804 62.2676 66.1412 62.6624 66.7761 62.8868V65.554C66.7761 65.8785 66.905 66.1897 67.1344 66.4192C67.3639 66.6486 67.6751 66.7775 67.9995 66.7775C68.324 66.7775 68.6352 66.6486 68.8647 66.4192C69.0941 66.1897 69.223 65.8785 69.223 65.554V62.8868C69.937 62.6344 70.5554 62.1674 70.9935 61.5497C71.4316 60.932 71.6679 60.1939 71.67 59.4366Z" fill="white"/>
<path d="M88.7998 74.1177H92.4703V93.6934H88.7998V74.1177Z" fill="#6B9B0B"/>
<path d="M43.5303 74.1177H47.2007V93.6934H43.5303V74.1177Z" fill="#6B9B0B"/>
<path d="M47.2012 74.1177H88.7997V93.6934H47.2012V74.1177Z" fill="#F3F3F3"/>
<path d="M97.3637 76.5649H38.6364C37.285 76.5649 36.1895 77.6605 36.1895 79.0119V88.7998C36.1895 90.1512 37.285 91.2468 38.6364 91.2468H97.3637C98.7151 91.2468 99.8107 90.1512 99.8107 88.7998V79.0119C99.8107 77.6605 98.7151 76.5649 97.3637 76.5649Z" fill="#FFAC00"/>
<path d="M45.9774 88.8001C45.6529 88.8001 45.3417 88.6712 45.1123 88.4417C44.8828 88.2123 44.7539 87.9011 44.7539 87.5766V80.2357C44.7539 79.9112 44.8828 79.6 45.1123 79.3706C45.3417 79.1411 45.6529 79.0122 45.9774 79.0122C46.3019 79.0122 46.6131 79.1411 46.8425 79.3706C47.072 79.6 47.2009 79.9112 47.2009 80.2357V87.5766C47.2009 87.9011 47.072 88.2123 46.8425 88.4417C46.6131 88.6712 46.3019 88.8001 45.9774 88.8001Z" fill="#F3F3F3"/>
<path d="M49.1582 86.9654C48.6933 86.9654 49.0358 87.0877 42.1843 83.1359C41.902 82.9736 41.6957 82.7059 41.6108 82.3916C41.5259 82.0772 41.5694 81.742 41.7316 81.4597C41.8939 81.1774 42.1616 80.9711 42.476 80.8862C42.7903 80.8013 43.1255 80.8448 43.4078 81.007L49.7699 84.6775C50.0056 84.811 50.1903 85.019 50.2951 85.2689C50.3998 85.5187 50.4187 85.7963 50.3487 86.058C50.2787 86.3197 50.1239 86.5508 49.9084 86.715C49.693 86.8792 49.4291 86.9673 49.1582 86.9654Z" fill="#F3F3F3"/>
<path d="M42.7965 86.9654C42.5256 86.9673 42.2617 86.8792 42.0463 86.715C41.8308 86.5508 41.676 86.3197 41.606 86.058C41.536 85.7963 41.5549 85.5187 41.6596 85.2689C41.7644 85.019 41.9491 84.811 42.1847 84.6775L48.5469 81.007C48.6867 80.9267 48.8409 80.8747 49.0008 80.8539C49.1607 80.8332 49.3231 80.8442 49.4787 80.8862C49.6344 80.9283 49.7802 81.0005 49.9079 81.0989C50.0356 81.1973 50.1427 81.3199 50.223 81.4597C50.3034 81.5995 50.3554 81.7537 50.3761 81.9136C50.3969 82.0735 50.3859 82.2359 50.3438 82.3916C50.3018 82.5472 50.2295 82.693 50.1311 82.8208C50.0327 82.9485 49.9101 83.0555 49.7704 83.1359C42.9066 87.0877 43.2614 86.9654 42.7965 86.9654Z" fill="#F3F3F3"/>
<path d="M60.659 88.8001C60.3345 88.8001 60.0233 88.6712 59.7939 88.4417C59.5644 88.2123 59.4355 87.9011 59.4355 87.5766V80.2357C59.4355 79.9112 59.5644 79.6 59.7939 79.3706C60.0233 79.1411 60.3345 79.0122 60.659 79.0122C60.9835 79.0122 61.2947 79.1411 61.5242 79.3706C61.7536 79.6 61.8825 79.9112 61.8825 80.2357V87.5766C61.8825 87.9011 61.7536 88.2123 61.5242 88.4417C61.2947 88.6712 60.9835 88.8001 60.659 88.8001Z" fill="#F3F3F3"/>
<path d="M63.8408 86.9654C63.3759 86.9654 63.7185 87.0877 56.8669 83.1359C56.5846 82.9736 56.3783 82.7059 56.2934 82.3916C56.2085 82.0772 56.252 81.742 56.4142 81.4597C56.5765 81.1774 56.8442 80.9711 57.1586 80.8862C57.4729 80.8013 57.8081 80.8448 58.0904 81.007L64.4525 84.6775C64.6882 84.811 64.8729 85.019 64.9777 85.2689C65.0824 85.5187 65.1013 85.7963 65.0313 86.058C64.9613 86.3197 64.8065 86.5508 64.591 86.715C64.3756 86.8792 64.1117 86.9673 63.8408 86.9654Z" fill="#F3F3F3"/>
<path d="M57.4781 86.9654C57.2072 86.9673 56.9434 86.8792 56.7279 86.715C56.5125 86.5508 56.3576 86.3197 56.2876 86.058C56.2176 85.7963 56.2365 85.5187 56.3412 85.2689C56.446 85.019 56.6307 84.811 56.8664 84.6775L63.2285 81.007C63.3683 80.9267 63.5225 80.8747 63.6824 80.8539C63.8423 80.8332 64.0047 80.8442 64.1604 80.8862C64.316 80.9283 64.4618 81.0005 64.5896 81.0989C64.7173 81.1973 64.8244 81.3199 64.9047 81.4597C64.985 81.5995 65.037 81.7537 65.0578 81.9136C65.0785 82.0735 65.0675 82.2359 65.0255 82.3916C64.9835 82.5472 64.9112 82.693 64.8128 82.8208C64.7144 82.9485 64.5918 83.0555 64.452 83.1359C57.5882 87.0877 57.9431 86.9654 57.4781 86.9654Z" fill="#F3F3F3"/>
<path d="M75.3407 88.8001C75.0162 88.8001 74.705 88.6712 74.4755 88.4417C74.2461 88.2123 74.1172 87.9011 74.1172 87.5766V80.2357C74.1172 79.9112 74.2461 79.6 74.4755 79.3706C74.705 79.1411 75.0162 79.0122 75.3407 79.0122C75.6652 79.0122 75.9764 79.1411 76.2058 79.3706C76.4353 79.6 76.5642 79.9112 76.5642 80.2357V87.5766C76.5642 87.9011 76.4353 88.2123 76.2058 88.4417C75.9764 88.6712 75.6652 88.8001 75.3407 88.8001Z" fill="#F3F3F3"/>
<path d="M78.5224 86.9654C78.0575 86.9654 78.4001 87.0877 71.5486 83.1359C71.2663 82.9736 71.06 82.7059 70.9751 82.3916C70.8902 82.0772 70.9336 81.742 71.0959 81.4597C71.2581 81.1774 71.5259 80.9711 71.8402 80.8862C72.1546 80.8013 72.4898 80.8448 72.7721 81.007L79.1342 84.6775C79.3699 84.811 79.5546 85.019 79.6593 85.2689C79.7641 85.5187 79.7829 85.7963 79.713 86.058C79.643 86.3197 79.4881 86.5508 79.2727 86.715C79.0572 86.8792 78.7933 86.9673 78.5224 86.9654Z" fill="#F3F3F3"/>
<path d="M72.1598 86.9654C71.8889 86.9673 71.625 86.8792 71.4095 86.715C71.1941 86.5508 71.0392 86.3197 70.9693 86.058C70.8993 85.7963 70.9181 85.5187 71.0229 85.2689C71.1276 85.019 71.3123 84.811 71.548 84.6775L77.9102 81.007C78.0499 80.9267 78.2042 80.8747 78.3641 80.8539C78.5239 80.8332 78.6863 80.8442 78.842 80.8862C78.9976 80.9283 79.1435 81.0005 79.2712 81.0989C79.3989 81.1973 79.506 81.3199 79.5863 81.4597C79.6667 81.5995 79.7187 81.7537 79.7394 81.9136C79.7601 82.0735 79.7492 82.2359 79.7071 82.3916C79.6651 82.5472 79.5928 82.693 79.4944 82.8208C79.396 82.9485 79.2734 83.0555 79.1336 83.1359C72.2699 87.0877 72.6247 86.9654 72.1598 86.9654Z" fill="#F3F3F3"/>
<path d="M90.0223 88.8001C89.6978 88.8001 89.3866 88.6712 89.1572 88.4417C88.9277 88.2123 88.7988 87.9011 88.7988 87.5766V80.2357C88.7988 79.9112 88.9277 79.6 89.1572 79.3706C89.3866 79.1411 89.6978 79.0122 90.0223 79.0122C90.3468 79.0122 90.658 79.1411 90.8874 79.3706C91.1169 79.6 91.2458 79.9112 91.2458 80.2357V87.5766C91.2458 87.9011 91.1169 88.2123 90.8874 88.4417C90.658 88.6712 90.3468 88.8001 90.0223 88.8001Z" fill="#F3F3F3"/>
<path d="M93.2041 86.9654C92.7392 86.9654 93.0817 87.0877 86.2302 83.1359C85.9479 82.9736 85.7416 82.7059 85.6567 82.3916C85.5718 82.0772 85.6153 81.742 85.7775 81.4597C85.9398 81.1774 86.2075 80.9711 86.5219 80.8862C86.8362 80.8013 87.1714 80.8448 87.4537 81.007L93.8158 84.6775C94.0515 84.811 94.2362 85.019 94.341 85.2689C94.4457 85.5187 94.4646 85.7963 94.3946 86.058C94.3246 86.3197 94.1698 86.5508 93.9543 86.715C93.7389 86.8792 93.475 86.9673 93.2041 86.9654Z" fill="#F3F3F3"/>
<path d="M86.8414 86.9654C86.5705 86.9673 86.3066 86.8792 86.0912 86.715C85.8757 86.5508 85.7209 86.3197 85.6509 86.058C85.5809 85.7963 85.5998 85.5187 85.7045 85.2689C85.8093 85.019 85.994 84.811 86.2297 84.6775L92.5918 81.007C92.7316 80.9267 92.8858 80.8747 93.0457 80.8539C93.2056 80.8332 93.368 80.8442 93.5236 80.8862C93.6793 80.9283 93.8251 81.0005 93.9528 81.0989C94.0806 81.1973 94.1876 81.3199 94.268 81.4597C94.3483 81.5995 94.4003 81.7537 94.421 81.9136C94.4418 82.0735 94.4308 82.2359 94.3888 82.3916C94.3467 82.5472 94.2745 82.693 94.1761 82.8208C94.0777 82.9485 93.9551 83.0555 93.8153 83.1359C86.9515 87.0877 87.3063 86.9654 86.8414 86.9654Z" fill="#F3F3F3"/>
<path d="M80.2352 99.8112H55.7655C55.441 99.8112 55.1298 99.6823 54.9003 99.4529C54.6709 99.2234 54.542 98.9122 54.542 98.5877C54.542 98.2633 54.6709 97.9521 54.9003 97.7226C55.1298 97.4932 55.441 97.3643 55.7655 97.3643H80.2352C80.5597 97.3643 80.8709 97.4932 81.1003 97.7226C81.3298 97.9521 81.4587 98.2633 81.4587 98.5877C81.4587 98.9122 81.3298 99.2234 81.1003 99.4529C80.8709 99.6823 80.5597 99.8112 80.2352 99.8112Z" fill="#D9D9D9"/>
</g>
<defs>
<clipPath id="clip0_382_2371">
<rect width="78.303" height="78.303" fill="white" transform="translate(28.8486 28.8481)"/>
</clipPath>
</defs>
</svg>
