<?xml version="1.0" encoding="UTF-8"?>
<!DOCTYPE svg PUBLIC "-//W3C//DTD SVG 1.1//EN" "http://www.w3.org/Graphics/SVG/1.1/DTD/svg11.dtd">
<svg xmlns="http://www.w3.org/2000/svg" version="1.1" width="3187px" height="579px" style="shape-rendering:geometricPrecision; text-rendering:geometricPrecision; image-rendering:optimizeQuality; fill-rule:evenodd; clip-rule:evenodd" xmlns:xlink="http://www.w3.org/1999/xlink">
<g><path style="opacity:0.961" fill="#4b7720" d="M 270.5,-0.5 C 282.833,-0.5 295.167,-0.5 307.5,-0.5C 407.62,8.95333 484.453,55.9533 538,140.5C 582.28,218.905 590.28,300.905 562,386.5C 524.075,484.428 454.241,546.262 352.5,572C 339.111,574.732 325.777,576.899 312.5,578.5C 296.833,578.5 281.167,578.5 265.5,578.5C 174.245,568.805 102.079,526.805 49,452.5C 20.6596,409.977 4.15962,363.31 -0.5,312.5C -0.5,296.833 -0.5,281.167 -0.5,265.5C 13.1544,152.702 71.1544,71.8691 173.5,23C 204.702,9.94858 237.035,2.11525 270.5,-0.5 Z"/></g>
<g><path style="opacity:1" fill="#93a037" d="M 264.5,6.5 C 364.767,1.40361 446.934,37.0703 511,113.5C 568.673,189.87 585.34,274.536 561,367.5C 528.205,469.295 460.372,534.795 357.5,564C 249.387,587.026 156.887,559.193 80,480.5C 14.8166,405.104 -7.18343,318.437 14,220.5C 38.603,132.571 92.103,69.0706 174.5,30C 203.543,18.0316 233.543,10.1983 264.5,6.5 Z"/></g>
<g><path style="opacity:1" fill="#fbe7c3" d="M 266.5,11.5 C 369.83,7.25946 452.664,45.9261 515,127.5C 572.374,212.92 582.04,303.586 544,399.5C 503.27,486.885 435.77,541.051 341.5,562C 243.071,578.076 158.571,551.242 88,481.5C 27.3984,414.837 2.73175,336.503 14,246.5C 30.8035,155.741 79.3035,87.9078 159.5,43C 193.398,25.9994 229.065,15.4994 266.5,11.5 Z"/></g>
<g><path style="opacity:1" fill="#df001b" d="M 262.5,20.5 C 358.872,14.6241 438.038,48.2908 500,121.5C 562.726,206.338 574.726,298.005 536,396.5C 496.36,481.128 430.86,533.628 339.5,554C 238.005,569.796 152.838,539.962 84,464.5C 23.0237,389.149 5.357,304.483 31,210.5C 57.7822,129.718 110.282,72.5511 188.5,39C 212.513,29.6635 237.179,23.4968 262.5,20.5 Z"/></g>
<g><path style="opacity:0.995" fill="#df001a" d="M 744.5,173.5 C 789.168,173.333 833.835,173.5 878.5,174C 880.707,178.972 879.04,181.472 873.5,181.5C 887.784,252.923 902.451,324.256 917.5,395.5C 922.579,397.137 923.579,399.97 920.5,404C 892.833,404.667 865.167,404.667 837.5,404C 834.525,400.248 835.358,397.415 840,395.5C 840.167,394.5 840.333,393.5 840.5,392.5C 839.369,386.845 838.369,381.178 837.5,375.5C 820.167,375.5 802.833,375.5 785.5,375.5C 784.61,382.116 783.277,388.616 781.5,395C 784.885,395.718 786.885,397.718 787.5,401C 787.245,402.326 786.578,403.326 785.5,404C 757.833,404.667 730.167,404.667 702.5,404C 699.421,399.97 700.421,397.137 705.5,395.5C 720.42,324.566 735.087,253.566 749.5,182.5C 743.874,181.566 742.207,178.566 744.5,173.5 Z M 810.5,248.5 C 811.222,248.918 811.722,249.584 812,250.5C 816.79,275.452 821.957,300.285 827.5,325C 816.833,325.667 806.167,325.667 795.5,325C 800.944,299.613 805.944,274.113 810.5,248.5 Z"/></g>
<g><path style="opacity:0.994" fill="#df001a" d="M 934.5,173.5 C 967.502,173.333 1000.5,173.5 1033.5,174C 1100.3,180.814 1128.8,217.314 1119,283.5C 1114.42,300.672 1104.92,314.338 1090.5,324.5C 1103.41,346.371 1112.91,369.705 1119,394.5C 1121,395.833 1123,397.167 1125,398.5C 1125.82,400.701 1125.32,402.534 1123.5,404C 1095.5,404.667 1067.5,404.667 1039.5,404C 1037.79,402.867 1037.29,401.367 1038,399.5C 1039.28,397.269 1041.11,395.602 1043.5,394.5C 1037.74,375.684 1029.41,358.184 1018.5,342C 1017.55,341.517 1016.55,341.351 1015.5,341.5C 1015.5,359.5 1015.5,377.5 1015.5,395.5C 1018.67,395.664 1021.51,396.664 1024,398.5C 1024.86,400.749 1024.36,402.582 1022.5,404C 993.5,404.667 964.5,404.667 935.5,404C 932.421,399.97 933.421,397.137 938.5,395.5C 939.5,324.17 939.833,252.836 939.5,181.5C 933.607,181.018 931.94,178.351 934.5,173.5 Z M 1015.5,237.5 C 1026.89,236.569 1036.39,240.235 1044,248.5C 1051.02,265.817 1045.85,277.65 1028.5,284C 1024.18,284.499 1019.85,284.666 1015.5,284.5C 1015.5,268.833 1015.5,253.167 1015.5,237.5 Z"/></g>
<g><path style="opacity:0.994" fill="#df001a" d="M 1148.5,173.5 C 1193.53,173.042 1238.53,173.542 1283.5,175C 1314.57,179.411 1333.41,196.911 1340,227.5C 1343.58,249.764 1336.75,267.931 1319.5,282C 1315.78,284.527 1311.78,286.527 1307.5,288C 1331.67,296.453 1344,313.619 1344.5,339.5C 1341.62,376.216 1321.95,397.382 1285.5,403C 1240.19,404.614 1194.85,404.947 1149.5,404C 1146.42,399.97 1147.42,397.137 1152.5,395.5C 1153.5,324.17 1153.83,252.836 1153.5,181.5C 1147.61,181.018 1145.94,178.351 1148.5,173.5 Z M 1228.5,237.5 C 1238.97,236.945 1249.31,237.778 1259.5,240C 1268.24,246.614 1269.57,254.447 1263.5,263.5C 1261.51,265.499 1259.17,266.999 1256.5,268C 1247.17,268.5 1237.84,268.666 1228.5,268.5C 1228.5,258.167 1228.5,247.833 1228.5,237.5 Z M 1228.5,311.5 C 1238.91,311.074 1249.25,311.574 1259.5,313C 1269.39,319.039 1271.55,327.206 1266,337.5C 1264.27,339.617 1262.1,341.117 1259.5,342C 1249.25,343.426 1238.91,343.926 1228.5,343.5C 1228.5,332.833 1228.5,322.167 1228.5,311.5 Z"/></g>
<g><path style="opacity:0.994" fill="#df001a" d="M 1363.5,173.5 C 1392.07,173.171 1420.57,173.505 1449,174.5C 1450.48,178.207 1449.15,180.874 1445,182.5C 1444.33,230.833 1444.33,279.167 1445,327.5C 1447.64,338.463 1454.64,343.796 1466,343.5C 1480.44,342.723 1487.78,335.056 1488,320.5C 1488.83,274.496 1488.67,228.496 1487.5,182.5C 1483.19,181.367 1481.69,178.7 1483,174.5C 1511.67,173.167 1540.33,173.167 1569,174.5C 1569.67,176.167 1569.67,177.833 1569,179.5C 1567.33,180.5 1565.67,181.5 1564,182.5C 1563.96,234.525 1563.3,286.525 1562,338.5C 1552.31,380.18 1526.15,403.68 1483.5,409C 1458.37,412.315 1434.37,408.648 1411.5,398C 1386.44,383.417 1372.27,361.584 1369,332.5C 1368.67,282.5 1368.33,232.5 1368,182.5C 1362.8,181.265 1361.3,178.265 1363.5,173.5 Z"/></g>
<g><path style="opacity:0.995" fill="#df001a" d="M 1588.5,173.5 C 1646.17,173.167 1703.84,173.5 1761.5,174.5C 1736.87,230.749 1712.54,287.082 1688.5,343.5C 1710.5,343.667 1732.5,343.5 1754.5,343C 1755.5,341.333 1756.5,339.667 1757.5,338C 1759.7,337.175 1761.53,337.675 1763,339.5C 1763.5,361.164 1763.67,382.831 1763.5,404.5C 1704.16,404.833 1644.83,404.5 1585.5,403.5C 1606.74,348.354 1627.41,293.021 1647.5,237.5C 1630.83,237.5 1614.17,237.5 1597.5,237.5C 1597.62,242.547 1595.29,244.38 1590.5,243C 1589.87,242.25 1589.37,241.416 1589,240.5C 1588.5,218.169 1588.33,195.836 1588.5,173.5 Z"/></g>
<g><path style="opacity:0.996" fill="#497620" d="M 2200.5,173.5 C 2245.17,173.333 2289.83,173.5 2334.5,174C 2336.71,178.972 2335.04,181.472 2329.5,181.5C 2343.53,252.978 2358.2,324.311 2373.5,395.5C 2378.58,397.137 2379.58,399.97 2376.5,404C 2348.83,404.667 2321.17,404.667 2293.5,404C 2292.38,403.161 2291.71,401.994 2291.5,400.5C 2293.21,397.995 2294.87,395.495 2296.5,393C 2295.18,387.211 2294.18,381.377 2293.5,375.5C 2276.17,375.5 2258.83,375.5 2241.5,375.5C 2240.61,382.116 2239.28,388.616 2237.5,395C 2240.89,395.718 2242.89,397.718 2243.5,401C 2243.25,402.326 2242.58,403.326 2241.5,404C 2213.83,404.667 2186.17,404.667 2158.5,404C 2155.42,399.97 2156.42,397.137 2161.5,395.5C 2176.42,324.566 2191.09,253.566 2205.5,182.5C 2199.87,181.566 2198.21,178.566 2200.5,173.5 Z M 2266.5,247.5 C 2272.71,273.195 2278.04,299.195 2282.5,325.5C 2272.15,325.832 2261.81,325.499 2251.5,324.5C 2257.04,298.936 2262.04,273.27 2266.5,247.5 Z"/></g>
<g><path style="opacity:0.996" fill="#497620" d="M 2390.5,173.5 C 2423.5,173.333 2456.5,173.5 2489.5,174C 2557.57,181.67 2585.74,219.17 2574,286.5C 2569.18,302.667 2559.68,315.167 2545.5,324C 2550.07,330.908 2554.23,338.074 2558,345.5C 2564.46,361.544 2570.13,377.878 2575,394.5C 2576.44,395.87 2578.11,396.87 2580,397.5C 2582.15,399.895 2581.98,402.062 2579.5,404C 2551.5,404.667 2523.5,404.667 2495.5,404C 2493.68,402.534 2493.18,400.701 2494,398.5C 2495.74,397.044 2497.58,395.711 2499.5,394.5C 2493.7,375.739 2485.37,358.239 2474.5,342C 2473.21,341.51 2471.87,341.343 2470.5,341.5C 2470.5,359.5 2470.5,377.5 2470.5,395.5C 2474.03,395.505 2477.2,396.505 2480,398.5C 2480.82,400.701 2480.32,402.534 2478.5,404C 2449.5,404.667 2420.5,404.667 2391.5,404C 2388.42,399.97 2389.42,397.137 2394.5,395.5C 2395.5,324.17 2395.83,252.836 2395.5,181.5C 2389.38,181.11 2387.71,178.444 2390.5,173.5 Z M 2470.5,237.5 C 2481.65,236.381 2491.15,239.715 2499,247.5C 2505.09,259.739 2503.26,270.572 2493.5,280C 2486.41,284.039 2478.74,285.539 2470.5,284.5C 2470.5,268.833 2470.5,253.167 2470.5,237.5 Z"/></g>
<g><path style="opacity:0.996" fill="#497620" d="M 2604.5,173.5 C 2633.07,173.171 2661.57,173.505 2690,174.5C 2690.67,176.167 2690.67,177.833 2690,179.5C 2688.33,180.5 2686.67,181.5 2685,182.5C 2684.33,208.5 2684.33,234.5 2685,260.5C 2698.17,234.833 2711.33,209.167 2724.5,183.5C 2723.13,182.059 2721.63,180.726 2720,179.5C 2719.26,177.559 2719.42,175.726 2720.5,174C 2751.17,173.333 2781.83,173.333 2812.5,174C 2814.21,175.133 2814.71,176.633 2814,178.5C 2812.1,180.53 2809.94,182.197 2807.5,183.5C 2789.63,217.413 2771.63,251.246 2753.5,285C 2773.67,325.173 2793.67,364.673 2813.5,403.5C 2782.88,404.659 2752.21,404.825 2721.5,404C 2719.68,402.534 2719.18,400.701 2720,398.5C 2721.63,397.274 2723.13,395.941 2724.5,394.5C 2711.33,367.5 2698.17,340.5 2685,313.5C 2684.17,340.839 2684.33,368.173 2685.5,395.5C 2690.6,397.079 2691.6,399.913 2688.5,404C 2660.5,404.667 2632.5,404.667 2604.5,404C 2601.83,399.817 2603,396.983 2608,395.5C 2608.67,324.5 2608.67,253.5 2608,182.5C 2602.89,180.669 2601.73,177.669 2604.5,173.5 Z"/></g>
<g><path style="opacity:0.996" fill="#497620" d="M 1870.5,173.5 C 1906.17,173.5 1941.83,173.5 1977.5,173.5C 1986.87,214.987 1996.87,256.321 2007.5,297.5C 2017.81,256.247 2027.81,214.914 2037.5,173.5C 2073.21,173.173 2108.88,173.507 2144.5,174.5C 2145.63,176.074 2145.8,177.741 2145,179.5C 2143.33,180.5 2141.67,181.5 2140,182.5C 2139.33,253.5 2139.33,324.5 2140,395.5C 2145.51,396.804 2146.67,399.637 2143.5,404C 2115.5,404.667 2087.5,404.667 2059.5,404C 2056.83,399.817 2058,396.983 2063,395.5C 2063.67,366.167 2063.67,336.833 2063,307.5C 2053.67,339.808 2044.51,372.141 2035.5,404.5C 2016.83,404.5 1998.17,404.5 1979.5,404.5C 1970.49,372.141 1961.33,339.808 1952,307.5C 1951.33,336.833 1951.33,366.167 1952,395.5C 1956.64,396.778 1957.97,399.445 1956,403.5C 1927.91,404.661 1899.74,404.828 1871.5,404C 1867.83,401.897 1867.83,399.564 1871.5,397C 1872.77,396.691 1873.93,396.191 1875,395.5C 1875.67,324.5 1875.67,253.5 1875,182.5C 1869.8,181.265 1868.3,178.265 1870.5,173.5 Z"/></g>
<g><path style="opacity:0.998" fill="#4a7620" d="M 2828.5,173.5 C 2881.83,173.5 2935.17,173.5 2988.5,173.5C 2988.5,196.833 2988.5,220.167 2988.5,243.5C 2986.47,243.662 2984.47,243.495 2982.5,243C 2981.5,241.333 2980.5,239.667 2979.5,238C 2956.17,237.5 2932.84,237.333 2909.5,237.5C 2909.5,247.167 2909.5,256.833 2909.5,266.5C 2928.18,266.833 2946.85,266.5 2965.5,265.5C 2966.89,261.906 2969.55,260.573 2973.5,261.5C 2973.83,280.743 2973.49,299.91 2972.5,319C 2968.8,319.823 2966.47,318.323 2965.5,314.5C 2946.85,313.5 2928.18,313.167 2909.5,313.5C 2909.5,323.5 2909.5,333.5 2909.5,343.5C 2933.18,343.833 2956.84,343.5 2980.5,342.5C 2981.47,338.677 2983.8,337.177 2987.5,338C 2988.49,360.091 2988.83,382.258 2988.5,404.5C 2935.12,404.829 2881.79,404.496 2828.5,403.5C 2826.63,399.34 2827.97,396.673 2832.5,395.5C 2833.5,324.17 2833.83,252.836 2833.5,181.5C 2827.61,181.018 2825.94,178.351 2828.5,173.5 Z"/></g>
<g><path style="opacity:0.998" fill="#497620" d="M 3005.5,173.5 C 3063.83,173.5 3122.17,173.5 3180.5,173.5C 3180.67,196.502 3180.5,219.502 3180,242.5C 3178.27,243.576 3176.44,243.743 3174.5,243C 3173.5,241.333 3172.5,239.667 3171.5,238C 3157.84,237.5 3144.17,237.333 3130.5,237.5C 3130.17,290.171 3130.5,342.838 3131.5,395.5C 3136.58,397.137 3137.58,399.97 3134.5,404C 3106.5,404.667 3078.5,404.667 3050.5,404C 3047.92,401.88 3047.92,399.713 3050.5,397.5C 3052.06,396.926 3053.56,396.26 3055,395.5C 3055.5,342.834 3055.67,290.168 3055.5,237.5C 3041.83,237.333 3028.16,237.5 3014.5,238C 3013.5,239.667 3012.5,241.333 3011.5,243C 3009.53,243.495 3007.53,243.662 3005.5,243.5C 3005.5,220.167 3005.5,196.833 3005.5,173.5 Z"/></g>
</svg>
