<svg width="36" height="36" viewBox="0 0 36 36" fill="none" xmlns="http://www.w3.org/2000/svg">
<path d="M29.0194 23.67L18.8698 17.7717C18.7606 17.7082 18.6585 17.6322 18.5645 17.544L28.7141 23.4423C28.8082 23.5305 28.9102 23.6065 29.0194 23.67Z" fill="#FFD69A"/>
<path d="M23.7861 9.30142L33.9357 15.1997C33.306 14.8338 32.4354 14.8853 31.4761 15.4392C31.2791 15.5529 31.0822 15.6892 30.8918 15.8368L20.7422 9.9385C20.9325 9.79087 21.1295 9.6546 21.3265 9.54085C22.2858 8.98703 23.1564 8.93551 23.7861 9.30142Z" fill="#56707B"/>
<path d="M28.2258 15.5195L18.0762 9.62115C19.3016 10.3333 20.1964 10.1892 20.7409 9.93853L30.8905 15.8369C30.346 16.0875 29.4512 16.2316 28.2258 15.5195Z" fill="#56707B"/>
<path d="M12.4733 33.8745L2.331 27.9805C2.26928 27.9393 2.22816 27.8981 2.19727 27.8258C1.9813 27.3426 1.75497 26.5506 1.73438 26.4993L11.8869 32.4034C11.8972 32.4446 12.1339 33.2472 12.3498 33.7304C12.3807 33.7921 12.4218 33.8434 12.4733 33.8745Z" fill="#40545D"/>
<path d="M34.8688 18.3422C34.6014 20.0498 33.4904 21.9323 32.1327 22.9916C31.9167 23.1563 31.7006 23.3105 31.495 23.4235C30.9395 23.7425 30.4252 23.8966 29.9623 23.9072C29.4685 23.9072 29.0468 23.7525 28.7177 23.4441C26.4444 23.6912 24.3871 24.4828 22.6179 25.5014C18.6473 27.8057 16.0655 31.2311 15.4689 32.095C15.3763 32.2286 15.2632 32.3316 15.15 32.414L12.9591 33.8128C12.6813 33.9775 12.4447 33.9363 12.3521 33.7304C12.1362 33.2472 11.8995 32.4446 11.8892 32.4034C11.3852 32.6917 11.231 32.4034 11.2207 32.3934C10.3361 31.0559 11.3749 28.8956 11.4264 28.7726C20.6121 20.0704 27.6273 15.6164 27.9976 15.3798C29.3451 16.2538 30.312 16.0996 30.888 15.8324C31.0835 15.6882 31.2789 15.5546 31.4744 15.4416C33.6345 14.1965 35.342 15.4823 34.8688 18.3422Z" fill="#485F69"/>
<path d="M11.3215 32.4858L1.16895 26.5918C1.10724 26.5506 1.07641 26.4993 1.07641 26.4993C0.191741 25.1518 1.22037 22.9916 1.27186 22.8785L11.4244 28.7726C11.3729 28.8956 10.3341 31.0558 11.2187 32.3934C11.229 32.4034 11.2495 32.4546 11.3215 32.4858Z" fill="#56707B"/>
<path d="M11.4231 28.7775L1.27344 22.8792C10.4582 14.1746 17.476 9.71385 17.8454 9.47906L27.995 15.3774C27.6257 15.6122 20.6079 20.073 11.4231 28.7775Z" fill="#778C95"/>
<path d="M25.6495 15.7193C25.1763 16.0483 24.6311 16.439 24.0037 16.9021C22.6562 17.869 20.9692 19.1447 19.0354 20.7183L13.3574 17.6836L10.8887 16.3672C11.1767 16.1407 11.4544 15.9147 11.7322 15.7088C12.3699 15.1945 12.9665 14.7319 13.522 14.31C13.9128 14.0217 14.2831 13.7444 14.6226 13.4873C16.1244 12.3763 17.2456 11.6148 17.873 11.2035L20.9898 13.0136L22.1316 13.6721L24.0551 14.7931L25.6495 15.7193Z" fill="#4BB5E7"/>
<path d="M10.345 30.0272V30.9117L1.40625 25.7484V24.8635L1.67364 25.0182L10.345 30.0272Z" fill="#485F69"/>
<path d="M10.3452 30.0272V30.552L1.67383 25.5425V25.0181L10.3452 30.0272Z" fill="#35484F"/>
<path d="M12.511 18.204L12.5769 18.6779L11.2066 19.7369L11.1406 19.263L12.511 18.204Z" fill="#40545D"/>
<path d="M11.1394 19.263L11.2053 19.7368L8.52101 18.3461L8.45508 17.8722L11.1394 19.263Z" fill="#485F69"/>
<path d="M12.5097 18.204L11.1394 19.263L8.45508 17.8722L9.82541 16.8132L12.5097 18.204Z" fill="#56707B"/>
<path d="M15.5695 19.7883L15.6355 20.2622L14.2651 21.3212L14.1992 20.8473L15.5695 19.7883Z" fill="#40545D"/>
<path d="M14.1999 20.8473L14.2659 21.3212L11.5816 19.9304L11.5156 19.4565L14.1999 20.8473Z" fill="#485F69"/>
<path d="M15.5703 19.7883L14.1999 20.8473L11.5156 19.4565L12.8859 18.3975L15.5703 19.7883Z" fill="#56707B"/>
<path d="M18.6281 21.3727L18.6941 21.8466L17.3237 22.9056L17.2578 22.4317L18.6281 21.3727Z" fill="#40545D"/>
<path d="M17.2566 22.4317L17.3225 22.9056L14.6382 21.5148L14.5723 21.041L17.2566 22.4317Z" fill="#485F69"/>
<path d="M18.6269 21.3727L17.2566 22.4317L14.5723 21.0409L15.9426 19.9819L18.6269 21.3727Z" fill="#56707B"/>
<path d="M10.5815 19.696L10.6474 20.1699L9.27688 21.229L9.21094 20.7551L10.5815 19.696Z" fill="#40545D"/>
<path d="M9.20971 20.7551L9.27565 21.229L6.59132 19.8382L6.52539 19.3643L9.20971 20.7551Z" fill="#485F69"/>
<path d="M10.5803 19.696L9.20971 20.7551L6.52539 19.3643L7.89593 18.3052L10.5803 19.696Z" fill="#56707B"/>
<path d="M13.6401 21.2803L13.706 21.7541L12.3355 22.8133L12.2695 22.3394L13.6401 21.2803Z" fill="#40545D"/>
<path d="M12.2703 22.3395L12.3362 22.8133L9.65187 21.4225L9.58594 20.9487L12.2703 22.3395Z" fill="#485F69"/>
<path d="M13.6408 21.2802L12.2703 22.3394L9.58594 20.9486L10.9565 19.8895L13.6408 21.2802Z" fill="#56707B"/>
<path d="M16.6987 22.8647L16.7646 23.3386L15.3941 24.3978L15.3281 23.9239L16.6987 22.8647Z" fill="#40545D"/>
<path d="M15.3269 23.9239L15.3928 24.3977L12.7085 23.007L12.6426 22.5331L15.3269 23.9239Z" fill="#485F69"/>
<path d="M16.6974 22.8647L15.3269 23.9239L12.6426 22.5331L14.0131 21.4739L16.6974 22.8647Z" fill="#56707B"/>
<path d="M8.64768 21.191L8.71361 21.6649L7.34327 22.7239L7.27734 22.25L8.64768 21.191Z" fill="#40545D"/>
<path d="M7.27808 22.25L7.34401 22.7239L4.65968 21.3331L4.59375 20.8593L7.27808 22.25Z" fill="#485F69"/>
<path d="M8.64841 21.1911L7.27808 22.2501L4.59375 20.8593L5.96408 19.8003L8.64841 21.1911Z" fill="#56707B"/>
<path d="M11.7063 22.7753L11.7722 23.2492L10.4019 24.3082L10.3359 23.8343L11.7063 22.7753Z" fill="#40545D"/>
<path d="M10.3347 23.8343L10.4006 24.3082L7.71632 22.9174L7.65039 22.4435L10.3347 23.8343Z" fill="#485F69"/>
<path d="M11.705 22.7753L10.3347 23.8343L7.65039 22.4435L9.02072 21.3845L11.705 22.7753Z" fill="#56707B"/>
<path d="M14.7649 24.3597L14.8308 24.8336L13.4605 25.8926L13.3945 25.4187L14.7649 24.3597Z" fill="#40545D"/>
<path d="M13.3953 25.4187L13.4612 25.8926L10.7769 24.5018L10.7109 24.028L13.3953 25.4187Z" fill="#485F69"/>
<path d="M14.7656 24.3598L13.3953 25.4188L10.7109 24.028L12.0813 22.969L14.7656 24.3598Z" fill="#56707B"/>
<path d="M6.7182 22.6829L6.78413 23.1568L5.41359 24.216L5.34766 23.7421L6.7182 22.6829Z" fill="#CB4844"/>
<path d="M5.34839 23.7422L5.41433 24.216L2.73 22.8253L2.66406 22.3514L5.34839 23.7422Z" fill="#EE5550"/>
<path d="M6.71893 22.683L5.34839 23.7422L2.66406 22.3514L4.0346 21.2922L6.71893 22.683Z" fill="#F17572"/>
<path d="M9.77288 24.2673L9.83882 24.7412L8.46827 25.8004L8.40234 25.3265L9.77288 24.2673Z" fill="#269DD6"/>
<path d="M8.40307 25.3265L8.469 25.8004L5.78468 24.4096L5.71875 23.9357L8.40307 25.3265Z" fill="#4BB5E7"/>
<path d="M9.7736 24.2673L8.40307 25.3265L5.71875 23.9357L7.08928 22.8765L9.7736 24.2673Z" fill="#78CFE2"/>
<path d="M12.8315 25.8517L12.8974 26.3256L11.5269 27.3847L11.4609 26.9108L12.8315 25.8517Z" fill="#D8B441"/>
<path d="M11.4597 26.9109L11.5256 27.3848L8.84132 25.994L8.77539 25.5201L11.4597 26.9109Z" fill="#FED44C"/>
<path d="M12.8302 25.8517L11.4597 26.9109L8.77539 25.5201L10.1459 24.4609L12.8302 25.8517Z" fill="#FEE182"/>
<path d="M31.3068 15.3221L31.4173 15.267C32.278 14.7697 33.1386 14.7458 33.794 15.117L23.8611 9.34518C23.2057 8.9662 22.3451 8.99781 21.4844 9.49516L21.3739 9.55029C21.3681 9.55376 21.3471 9.56879 21.334 9.57766L31.271 15.3476C31.2822 15.3395 31.3016 15.3256 31.3068 15.3221Z" fill="#485F69"/>
<path d="M31.094 14.5799C30.9519 14.6825 30.6203 14.9354 30.6203 14.9354L22.1797 10.0322C22.1876 10.0241 22.3376 9.89761 22.3455 9.89761C22.3613 9.88218 22.4481 9.81895 22.6455 9.6767L31.094 14.5799Z" fill="#40545D"/>
<path d="M30.7753 14.6709L22.6172 9.8794C22.6091 7.02067 24.6272 3.52278 27.1171 2.08521L35.2753 6.87668C32.7853 8.31424 30.7672 11.8121 30.7753 14.6709Z" fill="#DDE4E7"/>
<path d="M35.2773 6.87671L35.2775 6.94505C32.8215 8.36301 30.8289 11.8145 30.8369 14.6366L30.7774 14.6709C30.7693 11.8122 32.7873 8.31428 35.2773 6.87671Z" fill="#CFD8DD"/>
<path d="M10.502 16.1588L10.8893 16.3657C14.2901 13.6455 16.7988 11.9177 17.8755 11.2045V10.6891C16.7573 11.43 14.1051 13.2532 10.502 16.1588Z" fill="#485F69"/>
<path d="M17.875 10.6891V11.2045L25.6477 15.7218C25.7867 15.6254 25.9283 15.5264 26.0526 15.4415L17.875 10.6891Z" fill="#56707B"/>
<path d="M22.1331 13.6721L13.5234 14.3099C13.9143 14.0216 14.2846 13.7444 14.6241 13.4872L20.9913 13.0136L22.1331 13.6721Z" fill="#61C4F0"/>
<path d="M25.6514 15.7193C25.1783 16.0482 24.6331 16.439 24.0056 16.9021L13.3594 17.6836L10.8906 16.3672C11.1787 16.1407 11.4564 15.9146 11.7341 15.7087L24.0571 14.7931L25.6514 15.7193Z" fill="#61C4F0"/>
<path d="M28.7171 23.4441C26.4438 23.6912 24.3865 24.4828 22.6173 25.5013C18.6468 27.8057 16.065 31.2311 15.4683 32.095C15.3757 32.2286 15.2626 32.3316 15.1495 32.4139L12.9585 33.8127C12.6807 33.9775 12.4442 33.9363 12.3516 33.7304C12.1356 33.2472 11.899 32.4446 11.8887 32.4034C11.8887 32.4034 19.3565 20.8419 28.7171 23.4441Z" fill="#778C95"/>
</svg>
