<svg width="24" height="24" viewBox="0 0 24 24" fill="none" xmlns="http://www.w3.org/2000/svg">
<g clip-path="url(#clip0_347_2125)">
<path fill-rule="evenodd" clip-rule="evenodd" d="M19.4911 10.5296C19.4911 13.3399 18.8493 15.4363 17.5656 16.7997C16.282 18.1631 14.2995 18.8467 11.6259 18.8467C9.12699 18.8467 7.2319 18.1631 5.94066 16.7997C4.64562 15.4325 4 13.3741 4 10.6245V1.39215C4 1.17567 4.1747 1.00098 4.39117 1.00098H8.92191C9.13838 1.00098 9.31308 1.17567 9.31308 1.39215V10.8258C9.31308 11.9499 9.52196 12.812 9.94351 13.4235C10.7069 14.4337 12.1424 14.635 13.1488 13.8716C13.3007 13.7577 13.4375 13.6248 13.5552 13.4766C13.9691 12.9032 14.1742 12.0601 14.1742 10.9473V9.18137H19.4873V10.5296H19.4911Z" fill="#203E7A"/>
<path fill-rule="evenodd" clip-rule="evenodd" d="M19.0807 8.14838H14.1777V1.41114C14.1777 1.18327 14.36 1.00098 14.5879 1.00098H15.3209C15.3209 3.30242 17.1894 5.16713 19.487 5.16713V8.15217H19.0807V8.14838Z" fill="#203E7A"/>
<path fill-rule="evenodd" clip-rule="evenodd" d="M16.3652 1.00098H19.0806C19.3085 1.00098 19.4908 1.18327 19.4908 1.41114V4.13034C17.7628 4.13034 16.3652 2.72896 16.3652 1.00098Z" fill="#F4821F"/>
<path fill-rule="evenodd" clip-rule="evenodd" d="M4.8915 23.3267C5.49155 23.3267 5.78018 22.9925 5.78018 22.5026V21.3215H5.35103V22.4912C5.35103 22.7456 5.14215 22.9545 4.8877 22.9545C4.63325 22.9545 4.42437 22.7456 4.42437 22.4912V21.3215H3.99902V22.5064C3.99902 22.9925 4.29145 23.3305 4.8915 23.3267ZM8.37026 23.2925V22.9241H7.42081L8.35127 21.6595V21.3215H6.87014V21.6898H7.80059L6.87014 22.9507V23.2887L8.37026 23.2925ZM10.3755 23.3267C10.7211 23.3343 11.0401 23.1482 11.1996 22.8406L10.8388 22.6659C10.7477 22.8406 10.5692 22.9507 10.3755 22.9507C10.0185 22.9317 9.74125 22.6279 9.76024 22.2709C9.77543 21.9367 10.0413 21.6708 10.3755 21.6557C10.5692 21.6595 10.7477 21.7696 10.8388 21.9405L11.1996 21.762C11.0401 21.4582 10.7211 21.2721 10.3755 21.2797C9.81341 21.2645 9.34248 21.705 9.32729 22.2671C9.3121 22.8292 9.75264 23.3001 10.3147 23.3153C10.3337 23.3305 10.3527 23.3305 10.3755 23.3267ZM14.0403 23.2925L13.2808 21.3215H12.7567L11.9933 23.2925H12.4718L12.5972 22.9583H13.4403L13.5618 23.2925H14.0403ZM13.3263 22.5899H12.7111L13.0187 21.743L13.3263 22.5899ZM16.8697 23.7862L16.1481 22.5405C16.4139 22.476 16.5962 22.2291 16.581 21.9557C16.5924 21.6177 16.3304 21.3328 15.9924 21.3177C15.9696 21.3177 15.943 21.3177 15.9202 21.3177H14.9974V23.2887H15.4151V22.5899H15.7227L16.3911 23.7824L16.8697 23.7862ZM15.8557 22.2253H15.4151V21.6936H15.8557C16.0038 21.6784 16.1329 21.7848 16.1481 21.9329C16.1633 22.081 16.0569 22.2101 15.9088 22.2253C15.8936 22.2253 15.8746 22.2253 15.8557 22.2253ZM18.4457 23.2925C19.0648 23.2925 19.4901 22.9013 19.4901 22.3089C19.4901 21.7164 19.061 21.3215 18.4457 21.3215H17.6672V23.2925H18.4457ZM18.4457 22.9241H18.0887V21.6936H18.4457C18.7647 21.6708 19.0382 21.9101 19.0648 22.2253C19.0686 22.2519 19.0686 22.2823 19.0648 22.3089C19.08 22.6355 18.8255 22.9089 18.4989 22.9241C18.4799 22.9241 18.4609 22.9241 18.4457 22.9241Z" fill="#233C7E"/>
<path fill-rule="evenodd" clip-rule="evenodd" d="M20.0034 21.2874V21.2912C20.0034 21.4925 19.8401 21.6596 19.635 21.6596C19.4337 21.6596 19.2666 21.4963 19.2666 21.2912C19.2666 21.09 19.4299 20.9229 19.635 20.9229H20.0034V21.2874Z" fill="#233C7E"/>
</g>
<defs>
<clipPath id="clip0_347_2125">
<rect width="16" height="22.7866" fill="white" transform="translate(4 1)"/>
</clipPath>
</defs>
</svg>
