<svg width="28" height="29" viewBox="0 0 28 29" fill="none" xmlns="http://www.w3.org/2000/svg">
<path d="M10.5003 5.16675H5.83366C5.18933 5.16675 4.66699 5.68908 4.66699 6.33341V11.0001C4.66699 11.6444 5.18933 12.1667 5.83366 12.1667H10.5003C11.1447 12.1667 11.667 11.6444 11.667 11.0001V6.33341C11.667 5.68908 11.1447 5.16675 10.5003 5.16675Z" fill="#BAD643" stroke="#BAD643" stroke-width="2" stroke-linecap="round" stroke-linejoin="round"/>
<path d="M22.1663 5.16675H17.4997C16.8553 5.16675 16.333 5.68908 16.333 6.33341V11.0001C16.333 11.6444 16.8553 12.1667 17.4997 12.1667H22.1663C22.8107 12.1667 23.333 11.6444 23.333 11.0001V6.33341C23.333 5.68908 22.8107 5.16675 22.1663 5.16675Z" fill="#BAD643" stroke="#BAD643" stroke-width="2" stroke-linecap="round" stroke-linejoin="round"/>
<path d="M10.5003 16.8333H5.83366C5.18933 16.8333 4.66699 17.3556 4.66699 17.9999V22.6666C4.66699 23.3109 5.18933 23.8333 5.83366 23.8333H10.5003C11.1447 23.8333 11.667 23.3109 11.667 22.6666V17.9999C11.667 17.3556 11.1447 16.8333 10.5003 16.8333Z" fill="#BAD643" stroke="#BAD643" stroke-width="2" stroke-linecap="round" stroke-linejoin="round"/>
<path d="M22.1663 16.8333H17.4997C16.8553 16.8333 16.333 17.3556 16.333 17.9999V22.6666C16.333 23.3109 16.8553 23.8333 17.4997 23.8333H22.1663C22.8107 23.8333 23.333 23.3109 23.333 22.6666V17.9999C23.333 17.3556 22.8107 16.8333 22.1663 16.8333Z" fill="#BAD643" stroke="#BAD643" stroke-width="2" stroke-linecap="round" stroke-linejoin="round"/>
</svg>
